<?xml version="1.0" encoding="utf-8"?>
<!-- Generator: Adobe Illustrator 16.0.0, SVG Export Plug-In . SVG Version: 6.00 Build 0)  -->
<!DOCTYPE svg PUBLIC "-//W3C//DTD SVG 1.1//EN" "http://www.w3.org/Graphics/SVG/1.1/DTD/svg11.dtd">
<svg version="1.1" id="Capa_1" xmlns="http://www.w3.org/2000/svg" xmlns:xlink="http://www.w3.org/1999/xlink" x="0px" y="0px"
	 width="80px" height="80px" viewBox="0 0 80 80" enable-background="new 0 0 80 80" xml:space="preserve">
<g>
	<g opacity="0.8">
		<path fill-rule="evenodd" clip-rule="evenodd" fill="#B0D135" d="M34.298,6.23c0.134,0,0.27,0,0.406,0
			c0.786,0.056,1.459,0.328,2.045,0.602c0.633,0.293,1.145,0.586,1.64,1.007c0.352,0.298,0.72,0.649,0.887,1.083
			c0.066,0.17,0.051,0.354,0.061,0.602c0.038,0.85,0.045,1.656,0.045,2.602c0,3.368,0.136,7.152,0.149,10.441
			c-0.567,0.682-1.067,1.448-1.88,2c-0.373,0.253-0.788,0.463-1.278,0.663c-0.485,0.197-1.733,0.655-1.88-0.106
			c-0.064-0.335-0.088-0.722-0.107-1.1c-0.269-5.701-0.354-11.956-0.405-17.734C34.07,6.254,34.202,6.26,34.298,6.23z"/>
		<path fill-rule="evenodd" clip-rule="evenodd" fill="#B0D135" d="M53.566,73.77c-1.248,0-2.497,0-3.746,0
			c-3.044-0.434-5.501-1.643-7.701-3.025c-2.185-1.373-4.141-3.014-5.925-4.798C23.825,53.575,17.933,37.452,17.663,20.144
			c0-0.33,0-0.66,0-0.993c0.146-4.375,1.858-7.323,4.377-9.341c2.524-2.023,5.955-3.243,10.197-3.52
			c0.206,6.519,0.377,13.072,0.587,19.585c-1.64,0.761-2.878,1.851-3.4,3.701c-0.418,1.486-0.189,3.374,0.301,4.572
			c0.172,0.418,0.395,0.799,0.589,1.188c2.356,4.769,4.855,9.395,7.309,14.004c0.822,1.544,1.678,3.067,2.572,4.542
			c0.863,1.43,1.719,3.073,3.293,3.806c0.857,0.399,1.901,0.54,3.009,0.362c1.004-0.163,1.875-0.53,2.617-0.948
			c5.195,4.056,10.372,8.132,15.538,12.214C61.478,71.319,57.724,72.744,53.566,73.77z"/>
		<path fill-rule="evenodd" clip-rule="evenodd" fill="#B0D135" d="M67.797,63.403c0,0.109,0,0.221,0,0.33
			c-0.386,1.611-0.938,3.055-1.398,4.588c-0.354-0.224-0.663-0.506-0.993-0.767c-4.827-3.837-9.706-7.664-14.501-11.506
			c-0.157-0.128-0.347-0.237-0.466-0.407c1.419-0.74,2.838-1.483,4.241-2.242c0.924-0.037,1.638,0.284,2.256,0.634
			c0.612,0.343,1.152,0.788,1.701,1.188c1.116,0.812,2.168,1.669,3.265,2.511c1.065,0.82,2.176,1.672,3.249,2.527
			c0.524,0.421,1.089,0.833,1.607,1.28C67.283,61.989,67.661,62.626,67.797,63.403z"/>
	</g>
	<g opacity="0.8">
		<path fill-rule="evenodd" clip-rule="evenodd" fill="#000001" d="M28.839,6.23c0.135,0,0.271,0,0.406,0
			c0.786,0.056,1.459,0.328,2.045,0.602c0.634,0.293,1.145,0.586,1.64,1.007c0.352,0.298,0.721,0.649,0.887,1.083
			c0.067,0.17,0.051,0.354,0.062,0.602c0.037,0.85,0.045,1.656,0.045,2.602c0,3.368,0.136,7.152,0.149,10.441
			c-0.567,0.682-1.068,1.448-1.88,2c-0.373,0.253-0.788,0.463-1.278,0.663c-0.484,0.197-1.733,0.655-1.88-0.106
			c-0.064-0.335-0.088-0.722-0.106-1.1c-0.269-5.701-0.354-11.956-0.405-17.734C28.612,6.254,28.744,6.26,28.839,6.23z"/>
		<path fill-rule="evenodd" clip-rule="evenodd" fill="#000001" d="M48.108,73.77c-1.249,0-2.498,0-3.747,0
			c-3.044-0.434-5.5-1.643-7.7-3.025c-2.187-1.373-4.142-3.014-5.926-4.798C18.367,53.575,12.474,37.452,12.204,20.144
			c0-0.33,0-0.66,0-0.993c0.146-4.375,1.859-7.323,4.378-9.341c2.524-2.023,5.955-3.243,10.197-3.52
			c0.207,6.519,0.377,13.072,0.587,19.585c-1.64,0.761-2.878,1.851-3.4,3.701c-0.418,1.486-0.189,3.374,0.301,4.572
			c0.172,0.418,0.394,0.799,0.588,1.188c2.356,4.769,4.855,9.395,7.31,14.004c0.821,1.544,1.678,3.067,2.572,4.542
			c0.863,1.43,1.72,3.073,3.294,3.806c0.857,0.399,1.901,0.54,3.009,0.362c1.003-0.163,1.874-0.53,2.617-0.948
			c5.194,4.056,10.371,8.132,15.537,12.214C56.02,71.319,52.265,72.744,48.108,73.77z"/>
		<path fill-rule="evenodd" clip-rule="evenodd" fill="#000001" d="M62.338,63.403c0,0.109,0,0.221,0,0.33
			c-0.386,1.611-0.938,3.055-1.397,4.588c-0.354-0.224-0.663-0.506-0.993-0.767c-4.828-3.837-9.706-7.664-14.502-11.506
			c-0.157-0.128-0.346-0.237-0.466-0.407c1.419-0.74,2.839-1.483,4.241-2.242c0.925-0.037,1.638,0.284,2.256,0.634
			c0.612,0.343,1.153,0.788,1.701,1.188c1.116,0.812,2.168,1.669,3.265,2.511c1.065,0.82,2.176,1.672,3.249,2.527
			c0.524,0.421,1.089,0.833,1.608,1.28C61.824,61.989,62.202,62.626,62.338,63.403z"/>
	</g>
</g>
</svg>
