<?xml version="1.0" encoding="utf-8"?>
<!-- Generator: Adobe Illustrator 16.0.0, SVG Export Plug-In . SVG Version: 6.00 Build 0)  -->
<!DOCTYPE svg PUBLIC "-//W3C//DTD SVG 1.1//EN" "http://www.w3.org/Graphics/SVG/1.1/DTD/svg11.dtd">
<svg version="1.1" id="Capa_1" xmlns="http://www.w3.org/2000/svg" xmlns:xlink="http://www.w3.org/1999/xlink" x="0px" y="0px"
	 width="100px" height="100px" viewBox="-15 -15 100 100" enable-background="new -15 -15 100 100" xml:space="preserve">
<g>
	<rect x="-15" y="-14.999" opacity="0.8" fill="#FFCC05" enable-background="new    " width="100" height="99.998"/>
	<path fill="#020000" d="M40.198,65.03c-4.023,0-8.043,0-12.064,0c0-10.088,0-20.178,0-30.263c-2.976-0.082-6.261,0.151-9.042-0.119
		c0.075-2.94-0.158-6.185,0.115-8.927c2.977,0,5.953,0,8.93,0c0.132-7.668-0.951-15.088,3.25-18.671
		c3.764-3.217,10.977-2.596,17.972-2.436c-0.081,2.98,0.154,6.26-0.12,9.042c-4.534-0.327-7.572,0.233-8.694,3.364
		c-0.809,2.267-0.206,5.676-0.232,8.7c3.946,0.078,8.197-0.155,11.944,0.116c-0.421,3.058-0.89,6.069-1.505,8.932
		c-3.482,0-6.956,0-10.441,0C40.036,44.62,40.268,54.98,40.198,65.03z"/>
</g>
</svg>
