<?xml version="1.0" encoding="utf-8"?>
<!-- Generator: Adobe Illustrator 16.0.0, SVG Export Plug-In . SVG Version: 6.00 Build 0)  -->
<!DOCTYPE svg PUBLIC "-//W3C//DTD SVG 1.1//EN" "http://www.w3.org/Graphics/SVG/1.1/DTD/svg11.dtd">
<svg version="1.1" id="Capa_1" xmlns="http://www.w3.org/2000/svg" xmlns:xlink="http://www.w3.org/1999/xlink" x="0px" y="0px"
	 width="150px" height="150px" viewBox="-25 -25 150 150" enable-background="new -25 -25 150 150" xml:space="preserve">
<g>
	<rect x="-25" y="-24.998" fill="#FFCC05" enable-background="new    " width="150" height="149.996"/>
	<path fill="#020000" d="M57.797,95.045c-6.035,0-12.065,0-18.096,0c0-15.133,0-30.268,0-45.394
		c-4.464-0.123-9.392,0.226-13.563-0.179c0.112-4.41-0.237-9.278,0.173-13.391c4.465,0,8.93,0,13.395,0
		c0.199-11.502-1.427-22.633,4.875-28.007c5.646-4.825,16.465-3.894,26.959-3.653c-0.123,4.469,0.231,9.39-0.182,13.563
		c-6.8-0.49-11.357,0.35-13.04,5.046c-1.213,3.4-0.31,8.514-0.349,13.05c5.92,0.117,12.296-0.232,17.916,0.174
		c-0.631,4.587-1.334,9.103-2.257,13.397c-5.224,0-10.435,0-15.662,0C57.555,64.43,57.901,79.971,57.797,95.045z"/>
</g>
</svg>
