<?xml version="1.0" encoding="utf-8"?>
<!-- Generator: Adobe Illustrator 16.0.0, SVG Export Plug-In . SVG Version: 6.00 Build 0)  -->
<!DOCTYPE svg PUBLIC "-//W3C//DTD SVG 1.1//EN" "http://www.w3.org/Graphics/SVG/1.1/DTD/svg11.dtd">
<svg version="1.1" id="Capa_1" xmlns="http://www.w3.org/2000/svg" xmlns:xlink="http://www.w3.org/1999/xlink" x="0px" y="0px"
	 width="80px" height="80px" viewBox="-10.909 -9.38 80 80" enable-background="new -10.909 -9.38 80 80" xml:space="preserve">
<g>
	<g>
		<g id="pa2oF9.tif_6_">
			<g>
				<path d="M9.352-6.292c1.418-0.142,2.45,0.387,3.15,1.085c0.519,0.521,1.034,1.391,1.108,2.292
					c0.188,2.281-1.405,4.074-3.401,4.236C9.006,1.418,8.003,1.026,7.284,0.388C6.43-0.369,5.576-1.889,6.151-3.694
					c0.308-0.96,0.854-1.581,1.663-2.065C8.265-6.031,8.673-6.221,9.352-6.292z"/>
				<path d="M15.628,8.403c-0.279,0-0.556,0-0.833,0c-0.045,9.265-0.024,18.973-0.024,28.429c0,0.639,0.056,1.29-0.051,1.84
					c-0.201,1.031-1.09,1.763-2.215,1.763c-1.203,0-1.983-0.76-2.194-1.763c-0.137-0.655-0.051-1.445-0.051-2.194
					c0-5.186,0-10.417,0-15.573c-0.252-0.057-0.612-0.012-0.905-0.028C9.304,25.96,9.327,31.143,9.327,36.3
					c0,0.73,0.054,1.472-0.025,2.169c-0.129,1.148-0.975,1.978-2.243,1.966c-1.171-0.01-2.093-0.817-2.221-1.966
					c-0.062-0.598,0-1.262,0-1.891c0-9.319-0.037-18.824-0.021-28.15C4.577,8.369,4.237,8.42,3.957,8.402c0,2.918,0,5.587,0,8.593
					c0,0.821,0.129,2.091-0.126,2.723c-0.259,0.645-0.829,1.077-1.587,1.059c-0.809-0.02-1.437-0.58-1.587-1.311
					c-0.149-0.739-0.027-1.912-0.027-2.748c0-2.706,0-5.686,0-8.316c0-1.005-0.008-1.842,0.204-2.57c0.2-0.691,0.54-1.29,0.983-1.79
					C2.679,3.064,3.8,2.389,5.595,2.304c1.304-0.064,2.602,0,3.856,0c1.3,0,2.594,0,3.856,0c1.331,0,2.319,0.172,3.176,0.679
					c1.175,0.693,2.102,1.778,2.392,3.377c0.102,0.546,0.079,1.145,0.079,1.838c0,3.222,0,6.365,0,9.604
					c0,0.64,0.07,1.368-0.079,1.838c-0.208,0.673-0.827,1.197-1.712,1.135c-0.739-0.052-1.364-0.602-1.511-1.311
					c-0.086-0.397-0.027-0.899-0.027-1.361C15.628,14.906,15.628,11.615,15.628,8.403z"/>
			</g>
		</g>
		<g id="pa2oF9.tif_5_">
			<g>
				<path d="M29.784-6.292c1.42-0.142,2.454,0.387,3.152,1.085c0.519,0.521,1.034,1.391,1.106,2.292
					c0.188,2.281-1.404,4.074-3.399,4.236c-1.204,0.096-2.207-0.295-2.926-0.934c-0.856-0.759-1.708-2.278-1.133-4.083
					c0.304-0.96,0.857-1.582,1.663-2.065C28.698-6.031,29.105-6.221,29.784-6.292z"/>
				<path d="M36.058,8.403c-0.274,0-0.551,0-0.83,0c-0.048,9.265-0.026,18.973-0.026,28.429c0,0.639,0.056,1.29-0.052,1.84
					c-0.201,1.031-1.09,1.763-2.216,1.763c-1.205,0-1.984-0.76-2.193-1.763c-0.138-0.655-0.052-1.445-0.052-2.194
					c0-5.186,0-10.417,0-15.573c-0.252-0.057-0.612-0.012-0.907-0.028c-0.045,5.083-0.025,10.266-0.025,15.423
					c0,0.73,0.055,1.472-0.023,2.169c-0.129,1.148-0.975,1.978-2.246,1.966c-1.169-0.01-2.095-0.817-2.215-1.966
					c-0.064-0.598,0-1.262,0-1.891c0-9.319-0.038-18.824-0.027-28.15c-0.234-0.059-0.578-0.008-0.857-0.026c0,2.918,0,5.587,0,8.593
					c0,0.821,0.129,2.091-0.125,2.723c-0.259,0.645-0.83,1.077-1.588,1.059c-0.809-0.02-1.437-0.58-1.587-1.311
					c-0.15-0.739-0.024-1.912-0.024-2.748c0-2.706,0-5.686,0-8.316c0-1.005-0.015-1.842,0.2-2.57c0.201-0.691,0.543-1.29,0.98-1.79
					c0.862-0.978,1.987-1.653,3.781-1.738c1.308-0.064,2.604,0,3.858,0c1.298,0,2.595,0,3.856,0c1.33,0,2.318,0.172,3.175,0.679
					c1.177,0.693,2.103,1.778,2.393,3.377c0.1,0.546,0.078,1.145,0.078,1.838c0,3.222,0,6.365,0,9.604
					c0,0.64,0.07,1.368-0.078,1.838c-0.206,0.673-0.827,1.197-1.71,1.135c-0.741-0.052-1.367-0.602-1.513-1.311
					c-0.086-0.397-0.029-0.899-0.029-1.361C36.058,14.906,36.058,11.615,36.058,8.403z"/>
			</g>
		</g>
		<g id="pa2oF9.tif_4_">
			<g>
				<path d="M50.213-6.292c1.421-0.142,2.455,0.387,3.15,1.085c0.524,0.521,1.04,1.391,1.112,2.292
					c0.186,2.281-1.404,4.074-3.405,4.236c-1.201,0.096-2.205-0.295-2.922-0.934c-0.857-0.759-1.708-2.278-1.134-4.083
					c0.307-0.96,0.856-1.582,1.665-2.065C49.131-6.031,49.539-6.221,50.213-6.292z"/>
				<path d="M56.492,8.403c-0.276,0-0.553,0-0.832,0c-0.046,9.265-0.024,18.973-0.024,28.429c0,0.639,0.057,1.29-0.051,1.84
					c-0.202,1.031-1.091,1.763-2.219,1.763c-1.203,0-1.982-0.76-2.191-1.763c-0.137-0.655-0.051-1.445-0.051-2.194
					c0-5.186,0-10.417,0-15.573c-0.253-0.057-0.61-0.012-0.908-0.028C50.17,25.96,50.192,31.143,50.192,36.3
					c0,0.73,0.052,1.472-0.026,2.169c-0.129,1.148-0.975,1.978-2.245,1.966c-1.168-0.01-2.092-0.817-2.213-1.966
					c-0.064-0.598,0-1.262,0-1.891c0-9.319-0.038-18.824-0.029-28.15c-0.234-0.059-0.58-0.008-0.857-0.026c0,2.918,0,5.587,0,8.593
					c0,0.821,0.129,2.091-0.126,2.723c-0.258,0.645-0.827,1.077-1.587,1.059c-0.809-0.02-1.438-0.58-1.585-1.311
					c-0.153-0.739-0.029-1.912-0.029-2.748c0-2.706,0-5.686,0-8.316c0-1.005-0.011-1.842,0.204-2.57
					c0.201-0.691,0.542-1.29,0.98-1.79c0.864-0.978,1.987-1.653,3.781-1.738c1.305-0.064,2.603,0,3.856,0c1.3,0,2.597,0,3.859,0
					c1.326,0,2.314,0.172,3.174,0.679c1.174,0.693,2.101,1.778,2.394,3.377c0.097,0.546,0.077,1.145,0.077,1.838
					c0,3.222,0,6.365,0,9.604c0,0.64,0.067,1.368-0.077,1.838c-0.21,0.673-0.83,1.197-1.714,1.135
					c-0.741-0.052-1.364-0.602-1.515-1.311c-0.08-0.397-0.024-0.899-0.024-1.361C56.492,14.906,56.492,11.615,56.492,8.403z"/>
			</g>
		</g>
	</g>
	<g>
		<path d="M-10.909,58.97H-9.2l1.562,3.013l1.558-3.013h1.687l-2.448,4.748v3.626h-1.604v-3.626L-10.909,58.97z"/>
		<path d="M0.866,58.759c1.184,0,2.206,0.431,3.056,1.288c0.854,0.856,1.282,1.901,1.282,3.135c0,1.224-0.423,2.26-1.262,3.104
			c-0.843,0.848-1.864,1.271-3.065,1.271c-1.254,0-2.302-0.434-3.13-1.303c-0.833-0.87-1.247-1.901-1.247-3.097
			c0-0.802,0.191-1.537,0.58-2.209c0.39-0.67,0.919-1.206,1.598-1.597C-0.645,58.956,0.082,58.759,0.866,58.759z M0.851,60.319
			c-0.776,0-1.426,0.27-1.955,0.81c-0.526,0.541-0.792,1.225-0.792,2.053c0,0.928,0.333,1.66,0.999,2.198
			c0.516,0.423,1.108,0.631,1.775,0.631c0.756,0,1.403-0.27,1.931-0.816c0.535-0.548,0.8-1.222,0.8-2.021
			c0-0.798-0.269-1.472-0.803-2.025C2.272,60.597,1.615,60.319,0.851,60.319z"/>
		<path d="M6.648,58.97h1.601v5.415c0,0.469,0.038,0.797,0.121,0.992c0.082,0.192,0.218,0.347,0.406,0.462
			c0.185,0.116,0.414,0.172,0.679,0.172c0.279,0,0.521-0.064,0.725-0.191c0.203-0.129,0.344-0.293,0.422-0.493
			c0.078-0.198,0.116-0.577,0.116-1.139v-5.215h1.601v4.992c0,0.841-0.048,1.426-0.144,1.751c-0.094,0.326-0.275,0.642-0.542,0.946
			c-0.271,0.305-0.575,0.526-0.924,0.676c-0.352,0.146-0.754,0.218-1.219,0.218c-0.607,0-1.136-0.142-1.587-0.421
			c-0.449-0.277-0.772-0.627-0.964-1.046s-0.29-1.129-0.29-2.125V58.97H6.648z"/>
		<path d="M13.342,58.97h4.63v1.572h-1.522v6.802h-1.62v-6.802h-1.488V58.97z"/>
		<path d="M19.06,58.97h1.617v3.161h2.793V58.97h1.614v8.374h-1.614v-3.672h-2.793v3.672H19.06V58.97z"/>
		<path d="M30.279,58.97h4.154v1.555h-2.57v1.521h2.57v1.529h-2.57v3.768h-1.584V58.97z"/>
		<path d="M39.807,58.759c1.182,0,2.202,0.431,3.056,1.288c0.854,0.859,1.281,1.901,1.281,3.135c0,1.224-0.421,2.26-1.265,3.104
			c-0.841,0.848-1.864,1.271-3.062,1.271c-1.257,0-2.302-0.434-3.132-1.303c-0.832-0.87-1.248-1.901-1.248-3.097
			c0-0.802,0.193-1.537,0.58-2.209c0.389-0.67,0.921-1.206,1.601-1.597C38.292,58.956,39.023,58.759,39.807,58.759z M39.785,60.319
			c-0.771,0-1.424,0.27-1.952,0.81c-0.529,0.541-0.79,1.225-0.79,2.053c0,0.928,0.33,1.66,0.999,2.198
			c0.516,0.423,1.106,0.631,1.775,0.631c0.755,0,1.399-0.27,1.931-0.816c0.534-0.548,0.801-1.222,0.801-2.021
			c0-0.798-0.269-1.472-0.804-2.025C41.206,60.597,40.556,60.319,39.785,60.319z"/>
		<path d="M45.753,58.97h1.687c0.926,0,1.584,0.083,1.979,0.247c0.39,0.166,0.707,0.44,0.943,0.824
			c0.241,0.383,0.362,0.835,0.362,1.359c0,0.552-0.135,1.011-0.397,1.382c-0.266,0.369-0.661,0.65-1.192,0.839l1.984,3.723h-1.74
			l-1.885-3.547h-0.146v3.547h-1.595V58.97L45.753,58.97z M47.345,62.244h0.497c0.508,0,0.856-0.065,1.048-0.199
			c0.195-0.134,0.287-0.354,0.287-0.662c0-0.185-0.043-0.343-0.143-0.479c-0.091-0.135-0.218-0.231-0.376-0.29
			c-0.161-0.06-0.454-0.088-0.873-0.088h-0.438v1.719H47.345z"/>
		<path d="M52.352,58.97h1.601v5.415c0,0.469,0.037,0.797,0.12,0.992c0.084,0.192,0.215,0.347,0.403,0.462
			c0.188,0.116,0.416,0.172,0.682,0.172c0.279,0,0.521-0.064,0.72-0.191c0.207-0.129,0.347-0.293,0.428-0.493
			c0.077-0.198,0.115-0.577,0.115-1.139v-5.215h1.601v4.992c0,0.841-0.049,1.426-0.146,1.751c-0.094,0.326-0.276,0.642-0.542,0.946
			c-0.271,0.305-0.577,0.526-0.927,0.676c-0.349,0.146-0.757,0.218-1.217,0.218c-0.606,0-1.136-0.142-1.587-0.421
			c-0.448-0.277-0.771-0.627-0.964-1.046s-0.29-1.129-0.29-2.125V58.97H52.352z"/>
		<path d="M60.68,58.97h1.555l1.938,5.841l1.958-5.841h1.555l1.405,8.374h-1.542l-0.896-5.288l-1.781,5.288h-1.404l-1.762-5.288
			l-0.918,5.288h-1.556L60.68,58.97z"/>
	</g>
</g>
</svg>
