<?xml version="1.0" encoding="utf-8"?>
<!-- Generator: Adobe Illustrator 16.0.0, SVG Export Plug-In . SVG Version: 6.00 Build 0)  -->
<!DOCTYPE svg PUBLIC "-//W3C//DTD SVG 1.1//EN" "http://www.w3.org/Graphics/SVG/1.1/DTD/svg11.dtd">
<svg version="1.1" id="Capa_1" xmlns="http://www.w3.org/2000/svg" xmlns:xlink="http://www.w3.org/1999/xlink" x="0px" y="0px"
	 width="80px" height="80px" viewBox="-20 -20 80 80" enable-background="new -20 -20 80 80" xml:space="preserve">
<g>
	<path fill="#020000" d="M198.307,595.989c-3.08,0-6.158,0.008-9.238-0.003c-1.633-0.008-2.6-0.802-2.645-2.124
		c-0.045-1.358,0.973-2.279,2.643-2.283c6.158-0.02,12.318-0.02,18.479,0c1.701,0.005,2.668,0.885,2.629,2.281
		c-0.035,1.349-0.969,2.117-2.627,2.126C204.467,595.999,201.387,595.989,198.307,595.989z"/>
	<path fill="#020000" d="M198.43,580.951c2.984-0.001,5.969-0.009,8.953,0.003c1.811,0.006,2.807,0.822,2.791,2.25
		c-0.014,1.414-1.006,2.195-2.838,2.197c-6.057,0.006-12.113,0.007-18.172-0.002c-1.645-0.003-2.629-0.76-2.736-2.048
		c-0.111-1.351,0.928-2.38,2.521-2.394C192.107,580.933,195.27,580.952,198.43,580.951z"/>
	<path fill="#020000" d="M182.172,585.443c-1.279-0.021-2.229-0.991-2.203-2.265c0.023-1.249,1.047-2.238,2.285-2.213
		c1.225,0.027,2.25,1.084,2.227,2.295C184.457,584.497,183.438,585.462,182.172,585.443z"/>
	<path fill="#020000" d="M184.479,593.841c-0.028,1.237-1.051,2.192-2.315,2.168c-1.281-0.021-2.224-0.998-2.19-2.27
		c0.026-1.244,1.062-2.236,2.293-2.203C183.486,591.568,184.51,592.633,184.479,593.841z"/>
	<path fill="#020000" d="M198.307,606.741c-3.08,0-6.158,0.008-9.238-0.003c-1.633-0.007-2.6-0.8-2.645-2.124
		c-0.045-1.358,0.973-2.279,2.643-2.283c6.158-0.019,12.318-0.019,18.479,0c1.701,0.005,2.668,0.885,2.629,2.281
		c-0.035,1.349-0.969,2.119-2.627,2.126C204.467,606.751,201.387,606.741,198.307,606.741z"/>
	<path fill="#020000" d="M184.479,604.593c-0.028,1.237-1.051,2.192-2.315,2.168c-1.281-0.021-2.224-0.998-2.19-2.27
		c0.026-1.244,1.062-2.236,2.293-2.203C183.486,602.32,184.51,603.385,184.479,604.593z"/>
</g>
<g>
	<path fill="#020000" d="M28.568,25.657c-8.156,0-16.31,0.022-24.467-0.008c-4.324-0.022-6.883-2.121-7.002-5.626
		c-0.121-3.598,2.573-6.037,6.999-6.047c16.311-0.046,32.625-0.046,48.933,0c4.508,0.013,7.07,2.342,6.963,6.041
		c-0.099,3.57-2.564,5.61-6.958,5.632C44.886,25.683,36.725,25.657,28.568,25.657z"/>
	<path fill="#020000" d="M28.891-14.174c7.905-0.002,15.813-0.024,23.718,0.008c4.792,0.016,7.43,2.177,7.391,5.96
		c-0.04,3.745-2.661,5.813-7.515,5.819C36.436-2.371,20.398-2.369,4.355-2.391C0.002-2.396-2.607-4.397-2.889-7.809
		c-0.3-3.579,2.45-6.301,6.674-6.339C12.15-14.22,20.521-14.17,28.891-14.174z"/>
	<path fill="#020000" d="M-14.166-2.276c-3.391-0.048-5.898-2.622-5.833-5.992c0.062-3.308,2.772-5.935,6.046-5.86
		c3.247,0.073,5.96,2.871,5.902,6.077C-8.115-4.781-10.813-2.226-14.166-2.276z"/>
	<path fill="#020000" d="M-8.052,19.967c-0.081,3.275-2.784,5.806-6.136,5.743c-3.393-0.061-5.883-2.645-5.804-6.013
		c0.074-3.294,2.809-5.922,6.075-5.835C-10.687,13.949-7.974,16.768-8.052,19.967z"/>
	<path fill="#020000" d="M28.568,54.132c-8.156,0-16.31,0.023-24.467-0.004c-4.324-0.021-6.883-2.12-7.002-5.626
		c-0.121-3.602,2.573-6.04,6.999-6.051c16.311-0.047,32.625-0.047,48.933,0c4.508,0.017,7.07,2.345,6.963,6.045
		c-0.099,3.572-2.564,5.612-6.958,5.632C44.886,54.159,36.725,54.132,28.568,54.132z"/>
	<path fill="#020000" d="M-8.052,48.449c-0.081,3.273-2.784,5.805-6.136,5.737c-3.393-0.063-5.883-2.645-5.804-6.009
		c0.074-3.295,2.809-5.923,6.075-5.837C-10.687,42.428-7.974,45.24-8.052,48.449z"/>
</g>
</svg>
