<?xml version="1.0" encoding="utf-8"?>
<!-- Generator: Adobe Illustrator 16.0.0, SVG Export Plug-In . SVG Version: 6.00 Build 0)  -->
<!DOCTYPE svg PUBLIC "-//W3C//DTD SVG 1.1//EN" "http://www.w3.org/Graphics/SVG/1.1/DTD/svg11.dtd">
<svg version="1.1" id="Capa_1" xmlns="http://www.w3.org/2000/svg" xmlns:xlink="http://www.w3.org/1999/xlink" x="0px" y="0px"
	 width="40px" height="40px" viewBox="-5 -5 40 40" enable-background="new -5 -5 40 40" xml:space="preserve">
<path fill="#020000" d="M14.151-4.81c0.956-0.063,3.182-0.271,3.897,0.41c0.884,0.838,0.213,2.8,0.635,3.835
	c0.273,0.667,0.907,0.882,1.751,1.225c0.722,0.296,1.33,0.771,2.227,0.653c1.379-0.181,1.656-2.229,3.258-2.284
	c1.129-0.042,1.976,1.374,2.545,1.959c0.699,0.714,1.967,1.543,1.99,2.531c0.033,1.551-2.073,1.93-2.229,3.51
	c-0.098,1.021,1.216,3.717,1.832,4c1.047,0.485,2.631-0.165,3.576,0.41c0.909,0.551,1.026,5.88,0.239,6.695
	c-0.801,0.829-2.554,0.167-3.659,0.573c-0.806,0.295-2.025,2.94-1.908,4.082c0.083,0.802,0.751,1.203,1.193,1.715
	c0.359,0.417,1.068,0.914,1.032,1.796c-0.041,0.979-1.334,1.834-1.986,2.531c-0.72,0.764-1.623,2.023-2.387,2.042
	c-1.374,0.028-2.141-2.291-3.499-2.369c-0.917-0.055-3.502,1.17-3.818,1.878c-0.631,1.413,0.36,2.969-0.556,3.918
	c-0.693,0.722-5.726,0.874-6.441-0.081c-0.763-1.021-0.072-2.631-0.557-3.757c-0.331-0.768-0.984-0.854-1.67-1.143
	c-0.612-0.26-1.265-0.739-1.987-0.734c-1.455,0.013-2.158,2.362-3.578,2.367c-1.021,0.006-1.758-1.315-2.465-2.041
	c-0.631-0.648-1.941-1.442-1.989-2.448c-0.078-1.643,2.105-2.036,2.226-3.593c0.073-0.925-1.094-3.697-1.908-4.002
	c-0.991-0.374-2.945,0.287-3.737-0.573c-0.713-0.773-0.9-6.046,0.238-6.694c0.917-0.52,2.998,0.011,3.817-0.653
	c0.462-0.372,1.531-2.727,1.511-3.592C1.725,6.599,1.095,6.017,0.629,5.479C0.229,5.012-0.543,4.523-0.56,3.764
	c-0.028-1.185,1.318-1.843,1.987-2.532c0.576-0.59,1.531-2.043,2.305-2.121C5.17-1.039,5.976,1.218,7.154,1.397
	C8.147,1.547,8.702,0.988,9.46,0.66c0.687-0.295,1.524-0.572,1.75-1.225c0.36-1.038-0.197-2.655,0.396-3.59
	C12.052-4.859,13.368-4.756,14.151-4.81z M9.38,15.032c0.025,3.09,2.462,5.764,5.725,5.713c3.034-0.044,5.899-2.751,5.486-6.529
	c-0.122-1.135-1.046-2.792-1.589-3.348c-0.962-0.986-2.807-1.823-4.772-1.553C11.566,9.684,9.354,11.905,9.38,15.032z"/>
</svg>
