<?xml version="1.0" encoding="utf-8"?>
<!-- Generator: Adobe Illustrator 16.0.0, SVG Export Plug-In . SVG Version: 6.00 Build 0)  -->
<!DOCTYPE svg PUBLIC "-//W3C//DTD SVG 1.1//EN" "http://www.w3.org/Graphics/SVG/1.1/DTD/svg11.dtd">
<svg version="1.1" id="Capa_1" xmlns="http://www.w3.org/2000/svg" xmlns:xlink="http://www.w3.org/1999/xlink" x="0px" y="0px"
	 width="40px" height="40px" viewBox="0 0 40 40" enable-background="new 0 0 40 40" xml:space="preserve">
<g>
	<path fill="#020000" d="M198.307,595.989c-3.08,0-6.158,0.008-9.238-0.003c-1.633-0.008-2.6-0.802-2.645-2.124
		c-0.045-1.358,0.973-2.279,2.643-2.283c6.158-0.02,12.318-0.02,18.479,0c1.701,0.005,2.668,0.885,2.629,2.281
		c-0.035,1.349-0.969,2.117-2.627,2.126C204.467,595.999,201.387,595.989,198.307,595.989z"/>
	<path fill="#020000" d="M198.43,580.951c2.984-0.001,5.969-0.009,8.953,0.003c1.811,0.006,2.807,0.822,2.791,2.25
		c-0.014,1.414-1.006,2.195-2.838,2.197c-6.057,0.006-12.113,0.007-18.172-0.002c-1.645-0.003-2.629-0.76-2.736-2.048
		c-0.111-1.351,0.928-2.38,2.521-2.394C192.107,580.933,195.27,580.952,198.43,580.951z"/>
	<path fill="#020000" d="M182.172,585.443c-1.279-0.021-2.229-0.991-2.203-2.265c0.023-1.249,1.047-2.238,2.285-2.213
		c1.225,0.027,2.25,1.084,2.227,2.295C184.457,584.497,183.438,585.462,182.172,585.443z"/>
	<path fill="#020000" d="M184.479,593.841c-0.028,1.237-1.051,2.192-2.315,2.168c-1.281-0.021-2.224-0.998-2.19-2.27
		c0.026-1.244,1.062-2.236,2.293-2.203C183.486,591.568,184.51,592.633,184.479,593.841z"/>
	<path fill="#020000" d="M198.307,606.741c-3.08,0-6.158,0.008-9.238-0.003c-1.633-0.007-2.6-0.8-2.645-2.124
		c-0.045-1.358,0.973-2.279,2.643-2.283c6.158-0.019,12.318-0.019,18.479,0c1.701,0.005,2.668,0.885,2.629,2.281
		c-0.035,1.349-0.969,2.119-2.627,2.126C204.467,606.751,201.387,606.741,198.307,606.741z"/>
	<path fill="#020000" d="M184.479,604.593c-0.028,1.237-1.051,2.192-2.315,2.168c-1.281-0.021-2.224-0.998-2.19-2.27
		c0.026-1.244,1.062-2.236,2.293-2.203C183.486,602.32,184.51,603.385,184.479,604.593z"/>
</g>
<g>
	<g id="pa2oF9.tif_12_">
		<g>
			<path d="M11.157,0.591c1.181-0.117,2.038,0.322,2.618,0.9c0.433,0.434,0.859,1.155,0.922,1.906
				c0.154,1.897-1.17,3.386-2.827,3.519c-1,0.083-1.834-0.242-2.431-0.774c-0.711-0.631-1.42-1.893-0.943-3.394
				C8.75,1.953,9.208,1.434,9.877,1.032C10.253,0.807,10.595,0.65,11.157,0.591z"/>
			<path d="M16.371,12.804c-0.23,0-0.462,0-0.69,0c-0.037,7.702-0.02,15.77-0.02,23.626c0,0.531,0.047,1.074-0.042,1.531
				c-0.169,0.857-0.907,1.465-1.843,1.465c-1,0-1.647-0.632-1.823-1.465c-0.111-0.544-0.041-1.201-0.041-1.823
				c0-4.311,0-8.659,0-12.946c-0.21-0.045-0.508-0.006-0.754-0.024c-0.038,4.229-0.022,8.538-0.022,12.825
				c0,0.605,0.043,1.22-0.022,1.803c-0.107,0.952-0.809,1.642-1.863,1.632c-0.971-0.009-1.741-0.68-1.844-1.632
				c-0.052-0.496,0-1.052,0-1.573c0-7.743-0.03-15.645-0.02-23.394c-0.199-0.049-0.483-0.006-0.715-0.022c0,2.423,0,4.645,0,7.14
				c0,0.681,0.107,1.739-0.104,2.264c-0.213,0.536-0.686,0.896-1.318,0.88c-0.672-0.017-1.195-0.482-1.319-1.089
				c-0.127-0.618-0.023-1.59-0.023-2.286c0-2.25,0-4.726,0-6.911c0-0.834-0.008-1.531,0.17-2.137c0.17-0.575,0.45-1.07,0.818-1.486
				c0.716-0.813,1.648-1.376,3.142-1.448c1.083-0.052,2.162,0,3.206,0c1.08,0,2.155,0,3.205,0c1.104,0,1.925,0.145,2.639,0.566
				c0.975,0.576,1.746,1.477,1.988,2.807c0.082,0.454,0.062,0.951,0.062,1.529c0,2.676,0,5.292,0,7.981
				c0,0.531,0.058,1.138-0.062,1.53c-0.176,0.559-0.691,0.995-1.426,0.942c-0.615-0.042-1.132-0.501-1.256-1.089
				c-0.069-0.331-0.022-0.749-0.022-1.135C16.371,18.211,16.371,15.474,16.371,12.804z"/>
		</g>
	</g>
	<g id="pa2oF9.tif_11_">
		<g>
			<path d="M28.14,0.591c1.179-0.117,2.035,0.322,2.615,0.9c0.435,0.434,0.861,1.155,0.923,1.906
				c0.153,1.897-1.167,3.386-2.825,3.519c-0.999,0.082-1.834-0.242-2.431-0.774c-0.71-0.631-1.419-1.893-0.943-3.394
				c0.256-0.796,0.714-1.315,1.382-1.717C27.234,0.807,27.576,0.65,28.14,0.591z"/>
			<path d="M33.353,12.804c-0.231,0-0.459,0-0.69,0c-0.04,7.702-0.021,15.77-0.021,23.626c0,0.531,0.043,1.074-0.041,1.531
				c-0.171,0.857-0.906,1.465-1.846,1.465c-1.001,0-1.647-0.632-1.821-1.465c-0.11-0.544-0.039-1.201-0.039-1.823
				c0-4.311,0-8.659,0-12.946c-0.209-0.045-0.51-0.006-0.755-0.024c-0.039,4.228-0.023,8.537-0.023,12.822
				c0,0.605,0.045,1.221-0.021,1.804c-0.104,0.952-0.809,1.642-1.863,1.632c-0.972-0.01-1.742-0.68-1.843-1.632
				c-0.055-0.496,0-1.053,0-1.573c0-7.744-0.031-15.646-0.021-23.395c-0.195-0.049-0.483-0.006-0.713-0.022c0,2.423,0,4.645,0,7.141
				c0,0.681,0.107,1.738-0.104,2.264c-0.218,0.535-0.689,0.896-1.32,0.88c-0.671-0.017-1.195-0.482-1.322-1.09
				c-0.121-0.616-0.019-1.588-0.019-2.284c0-2.25,0-4.726,0-6.911c0-0.835-0.008-1.531,0.167-2.137
				c0.167-0.575,0.451-1.07,0.817-1.487c0.719-0.813,1.65-1.375,3.145-1.446c1.085-0.053,2.161,0,3.204,0c1.079,0,2.154,0,3.204,0
				c1.105,0,1.927,0.143,2.64,0.564c0.978,0.577,1.748,1.477,1.991,2.809c0.082,0.454,0.063,0.951,0.063,1.529
				c0,2.676,0,5.291,0,7.983c0,0.529,0.058,1.137-0.063,1.529c-0.174,0.557-0.691,0.994-1.422,0.941
				c-0.617-0.043-1.135-0.501-1.26-1.089c-0.069-0.329-0.022-0.749-0.022-1.132C33.353,18.211,33.353,15.474,33.353,12.804z"/>
		</g>
	</g>
</g>
</svg>
