<?xml version="1.0" encoding="utf-8"?>
<!-- Generator: Adobe Illustrator 16.0.0, SVG Export Plug-In . SVG Version: 6.00 Build 0)  -->
<!DOCTYPE svg PUBLIC "-//W3C//DTD SVG 1.1//EN" "http://www.w3.org/Graphics/SVG/1.1/DTD/svg11.dtd">
<svg version="1.1" id="Capa_1" xmlns="http://www.w3.org/2000/svg" xmlns:xlink="http://www.w3.org/1999/xlink" x="0px" y="0px"
	 width="40px" height="40px" viewBox="-5 -5 40 40" enable-background="new -5 -5 40 40" xml:space="preserve">
<g>
	<path fill="#020000" d="M198.307,595.989c-3.08,0-6.158,0.008-9.238-0.003c-1.633-0.008-2.6-0.801-2.645-2.124
		c-0.045-1.358,0.973-2.279,2.643-2.283c6.158-0.019,12.318-0.019,18.478,0c1.701,0.005,2.668,0.885,2.629,2.281
		c-0.036,1.349-0.969,2.118-2.627,2.126C204.467,595.999,201.387,595.989,198.307,595.989z"/>
	<path fill="#020000" d="M198.43,580.951c2.984-0.001,5.969-0.009,8.953,0.003c1.811,0.006,2.807,0.822,2.791,2.25
		c-0.014,1.414-1.006,2.195-2.838,2.197c-6.057,0.006-12.113,0.007-18.172-0.002c-1.645-0.003-2.629-0.759-2.736-2.047
		c-0.111-1.351,0.928-2.38,2.521-2.394C192.107,580.933,195.27,580.952,198.43,580.951z"/>
	<path fill="#020000" d="M182.172,585.443c-1.279-0.02-2.229-0.991-2.203-2.264c0.023-1.249,1.047-2.239,2.285-2.213
		c1.225,0.027,2.25,1.084,2.227,2.295C184.457,584.497,183.438,585.462,182.172,585.443z"/>
	<path fill="#020000" d="M184.479,593.841c-0.029,1.237-1.051,2.192-2.316,2.168c-1.281-0.022-2.223-0.998-2.191-2.27
		c0.027-1.244,1.062-2.236,2.293-2.203C183.486,591.568,184.51,592.633,184.479,593.841z"/>
	<path fill="#020000" d="M198.307,606.741c-3.08,0-6.158,0.008-9.238-0.003c-1.633-0.007-2.6-0.8-2.645-2.124
		c-0.045-1.358,0.973-2.279,2.643-2.283c6.158-0.019,12.318-0.019,18.478,0c1.701,0.005,2.668,0.885,2.629,2.281
		c-0.036,1.349-0.969,2.119-2.627,2.126C204.467,606.751,201.387,606.741,198.307,606.741z"/>
	<path fill="#020000" d="M184.479,604.593c-0.029,1.237-1.051,2.192-2.316,2.168c-1.281-0.022-2.223-0.998-2.191-2.27
		c0.027-1.244,1.062-2.236,2.293-2.203C183.486,602.32,184.51,603.385,184.479,604.593z"/>
</g>
<g>
	<path fill="#020000" d="M19.259,17.812c-4.054,0-8.106,0.011-12.16-0.004c-2.149-0.011-3.421-1.054-3.48-2.796
		c-0.06-1.788,1.279-3,3.478-3.005c8.106-0.023,16.214-0.023,24.319,0c2.24,0.006,3.514,1.164,3.46,3.002
		c-0.049,1.774-1.275,2.788-3.458,2.798C27.368,17.824,23.313,17.812,19.259,17.812z"/>
	<path fill="#020000" d="M19.419-1.983c3.929-0.001,7.858-0.012,11.787,0.004c2.382,0.008,3.692,1.082,3.673,2.962
		c-0.019,1.861-1.323,2.889-3.735,2.892C23.169,3.883,15.198,3.884,7.225,3.873C5.062,3.87,3.765,2.876,3.625,1.18
		c-0.149-1.778,1.218-3.131,3.317-3.15C11.099-2.006,15.26-1.981,19.419-1.983z"/>
	<path fill="#020000" d="M-1.979,3.93c-1.685-0.024-2.931-1.303-2.899-2.978C-4.847-0.692-3.5-1.997-1.873-1.96
		C-0.26-1.924,1.089-0.533,1.06,1.06C1.028,2.685-0.313,3.955-1.979,3.93z"/>
	<path fill="#020000" d="M1.059,14.984c-0.04,1.628-1.383,2.885-3.049,2.854c-1.687-0.03-2.924-1.314-2.885-2.988
		c0.037-1.637,1.396-2.943,3.019-2.9C-0.25,11.993,1.098,13.394,1.059,14.984z"/>
	<path fill="#020000" d="M19.259,31.963c-4.054,0-8.106,0.011-12.16-0.002c-2.149-0.011-3.421-1.054-3.48-2.796
		c-0.06-1.79,1.279-3.002,3.478-3.007c8.106-0.023,16.214-0.023,24.319,0c2.24,0.008,3.514,1.165,3.46,3.004
		c-0.049,1.776-1.275,2.789-3.458,2.799C27.368,31.977,23.313,31.963,19.259,31.963z"/>
	<path fill="#020000" d="M1.059,29.138c-0.04,1.628-1.383,2.886-3.049,2.852c-1.687-0.031-2.924-1.314-2.885-2.986
		c0.037-1.638,1.396-2.944,3.019-2.901C-0.25,26.146,1.098,27.544,1.059,29.138z"/>
</g>
</svg>
