<?xml version="1.0" encoding="utf-8"?>
<!-- Generator: Adobe Illustrator 16.0.0, SVG Export Plug-In . SVG Version: 6.00 Build 0)  -->
<!DOCTYPE svg PUBLIC "-//W3C//DTD SVG 1.1//EN" "http://www.w3.org/Graphics/SVG/1.1/DTD/svg11.dtd">
<svg version="1.1" id="Capa_1" xmlns="http://www.w3.org/2000/svg" xmlns:xlink="http://www.w3.org/1999/xlink" x="0px" y="0px"
	 width="80px" height="80px" viewBox="-20 -20 80 80" enable-background="new -20 -20 80 80" xml:space="preserve">
<g>
	<path fill="#020000" d="M198.307,595.989c-3.08,0-6.158,0.008-9.238-0.003c-1.633-0.008-2.6-0.803-2.645-2.124
		c-0.045-1.358,0.973-2.279,2.643-2.283c6.158-0.021,12.318-0.021,18.479,0c1.701,0.005,2.668,0.885,2.629,2.281
		c-0.034,1.349-0.969,2.116-2.627,2.126C204.467,595.999,201.387,595.989,198.307,595.989z"/>
	<path fill="#020000" d="M198.43,580.951c2.984-0.001,5.969-0.009,8.953,0.003c1.811,0.006,2.807,0.822,2.791,2.25
		c-0.014,1.414-1.006,2.195-2.838,2.197c-6.057,0.006-12.113,0.007-18.172-0.002c-1.645-0.003-2.629-0.761-2.736-2.049
		c-0.111-1.351,0.928-2.38,2.521-2.394C192.107,580.933,195.27,580.952,198.43,580.951z"/>
	<path fill="#020000" d="M182.172,585.443c-1.279-0.021-2.229-0.991-2.203-2.266c0.023-1.249,1.047-2.237,2.285-2.213
		c1.225,0.027,2.25,1.084,2.227,2.295C184.457,584.497,183.438,585.462,182.172,585.443z"/>
	<path fill="#020000" d="M184.479,593.841c-0.027,1.237-1.051,2.192-2.314,2.168c-1.281-0.021-2.225-0.998-2.189-2.27
		c0.025-1.244,1.062-2.236,2.293-2.203C183.486,591.568,184.51,592.633,184.479,593.841z"/>
	<path fill="#020000" d="M198.307,606.741c-3.08,0-6.158,0.008-9.238-0.003c-1.633-0.007-2.6-0.8-2.645-2.124
		c-0.045-1.358,0.973-2.279,2.643-2.283c6.158-0.019,12.318-0.019,18.479,0c1.701,0.005,2.668,0.885,2.629,2.281
		c-0.034,1.349-0.969,2.119-2.627,2.126C204.467,606.751,201.387,606.741,198.307,606.741z"/>
	<path fill="#020000" d="M184.479,604.593c-0.027,1.237-1.051,2.192-2.314,2.168c-1.281-0.021-2.225-0.998-2.189-2.27
		c0.025-1.244,1.062-2.236,2.293-2.203C183.486,602.32,184.51,603.385,184.479,604.593z"/>
</g>
<g>
	<g id="pa2oF9.tif_12_">
		<g>
			<path d="M-8.16-11.527c1.918-0.189,3.31,0.523,4.252,1.462C-3.204-9.36-2.513-8.188-2.41-6.969c0.25,3.081-1.9,5.5-4.591,5.716
				C-8.626-1.118-9.98-1.646-10.951-2.51c-1.155-1.025-2.306-3.075-1.531-5.513c0.412-1.291,1.156-2.134,2.243-2.787
				C-9.628-11.176-9.072-11.431-8.16-11.527z"/>
			<path d="M0.31,8.312c-0.374,0-0.75,0-1.121,0c-0.061,12.511-0.033,25.616-0.033,38.376c0,0.863,0.076,1.745-0.068,2.487
				c-0.274,1.393-1.474,2.379-2.994,2.379c-1.624,0-2.675-1.026-2.96-2.379c-0.181-0.884-0.067-1.951-0.067-2.96
				c0-7.004,0-14.067,0-21.031c-0.341-0.072-0.826-0.009-1.225-0.038c-0.062,6.869-0.036,13.869-0.036,20.833
				c0,0.981,0.07,1.981-0.035,2.928c-0.174,1.547-1.314,2.667-3.026,2.651c-1.578-0.015-2.829-1.104-2.995-2.651
				c-0.085-0.806,0-1.708,0-2.555c0-12.576-0.049-25.412-0.032-38c-0.324-0.08-0.785-0.009-1.162-0.036c0,3.936,0,7.545,0,11.597
				c0,1.107,0.174,2.825-0.169,3.678c-0.346,0.87-1.114,1.456-2.141,1.429c-1.091-0.026-1.941-0.782-2.142-1.769
				c-0.207-1.004-0.038-2.582-0.038-3.713c0-3.655,0-7.676,0-11.225c0-1.355-0.013-2.487,0.276-3.472
				c0.276-0.935,0.731-1.738,1.329-2.414c1.163-1.321,2.677-2.235,5.104-2.353c1.759-0.084,3.512,0,5.208,0c1.754,0,3.5,0,5.206,0
				c1.793,0,3.127,0.236,4.286,0.919c1.584,0.936,2.836,2.399,3.23,4.56C4.837,6.292,4.804,7.1,4.804,8.038
				c0,4.347,0,8.597,0,12.965c0,0.862,0.094,1.848-0.101,2.483c-0.287,0.909-1.123,1.618-2.317,1.531
				c-0.999-0.068-1.838-0.813-2.04-1.769c-0.112-0.538-0.036-1.217-0.036-1.844C0.31,17.094,0.31,12.648,0.31,8.312z"/>
		</g>
	</g>
	<g id="pa2oF9.tif_1_">
		<g>
			<path d="M19.427-11.527c1.918-0.189,3.31,0.523,4.252,1.462c0.704,0.704,1.396,1.876,1.497,3.096
				c0.251,3.081-1.9,5.5-4.591,5.716c-1.624,0.135-2.979-0.393-3.949-1.257c-1.155-1.025-2.307-3.075-1.531-5.513
				c0.412-1.291,1.156-2.134,2.243-2.787C17.958-11.176,18.514-11.431,19.427-11.527z"/>
			<path d="M27.896,8.312c-0.373,0-0.751,0-1.122,0c-0.06,12.511-0.031,25.616-0.031,38.376c0,0.863,0.076,1.745-0.068,2.487
				c-0.274,1.393-1.474,2.379-2.993,2.379c-1.624,0-2.676-1.026-2.962-2.379c-0.181-0.884-0.066-1.951-0.066-2.96
				c0-7.004,0-14.067,0-21.031c-0.341-0.072-0.826-0.009-1.225-0.038c-0.062,6.869-0.036,13.869-0.036,20.833
				c0,0.981,0.069,1.981-0.035,2.928c-0.175,1.547-1.313,2.667-3.026,2.651c-1.577-0.015-2.828-1.104-2.995-2.651
				c-0.086-0.806,0-1.708,0-2.555c0-12.576-0.049-25.412-0.032-38c-0.323-0.08-0.786-0.009-1.162-0.036c0,3.936,0,7.545,0,11.597
				c0,1.107,0.173,2.825-0.17,3.678c-0.346,0.87-1.113,1.456-2.14,1.429c-1.091-0.026-1.94-0.782-2.143-1.769
				c-0.207-1.004-0.037-2.582-0.037-3.713c0-3.655,0-7.676,0-11.225c0-1.355-0.014-2.487,0.276-3.472
				C8.204,3.907,8.66,3.104,9.256,2.428c1.165-1.321,2.678-2.235,5.104-2.353c1.76-0.084,3.513,0,5.208,0c1.755,0,3.501,0,5.206,0
				c1.794,0,3.127,0.236,4.286,0.919c1.585,0.936,2.836,2.399,3.229,4.56c0.134,0.738,0.101,1.545,0.101,2.483
				c0,4.347,0,8.597,0,12.965c0,0.862,0.095,1.848-0.101,2.483c-0.287,0.909-1.123,1.618-2.317,1.531
				c-0.998-0.068-1.837-0.813-2.04-1.769c-0.111-0.538-0.035-1.217-0.035-1.844C27.896,17.094,27.896,12.648,27.896,8.312z"/>
		</g>
	</g>
	<g id="pa2oF9.tif_2_">
		<g>
			<path d="M47.014-11.527c1.918-0.189,3.31,0.523,4.252,1.462c0.704,0.704,1.396,1.876,1.497,3.096
				c0.251,3.081-1.9,5.5-4.591,5.716c-1.624,0.135-2.979-0.393-3.95-1.257c-1.154-1.025-2.306-3.075-1.53-5.513
				c0.412-1.291,1.156-2.134,2.243-2.787C45.545-11.176,46.101-11.431,47.014-11.527z"/>
			<path d="M55.483,8.312c-0.373,0-0.751,0-1.122,0c-0.06,12.511-0.031,25.616-0.031,38.376c0,0.863,0.076,1.745-0.068,2.487
				c-0.274,1.393-1.474,2.379-2.993,2.379c-1.625,0-2.676-1.026-2.962-2.379c-0.181-0.884-0.066-1.951-0.066-2.96
				c0-7.004,0-14.067,0-21.031c-0.341-0.072-0.826-0.009-1.225-0.038c-0.062,6.869-0.036,13.869-0.036,20.833
				c0,0.981,0.069,1.981-0.035,2.928c-0.175,1.547-1.313,2.667-3.026,2.651c-1.577-0.015-2.829-1.104-2.995-2.651
				c-0.086-0.806,0-1.708,0-2.555c0-12.576-0.049-25.412-0.032-38c-0.323-0.08-0.786-0.009-1.162-0.036c0,3.936,0,7.545,0,11.597
				c0,1.107,0.173,2.825-0.17,3.678c-0.346,0.87-1.113,1.456-2.14,1.429c-1.092-0.026-1.94-0.782-2.144-1.769
				c-0.206-1.004-0.036-2.582-0.036-3.713c0-3.655,0-7.676,0-11.225c0-1.355-0.015-2.487,0.275-3.472
				c0.276-0.935,0.731-1.738,1.328-2.414c1.164-1.321,2.678-2.235,5.104-2.353c1.76-0.084,3.512,0,5.208,0c1.754,0,3.501,0,5.206,0
				c1.794,0,3.127,0.236,4.286,0.919c1.585,0.936,2.836,2.399,3.229,4.56c0.134,0.738,0.1,1.545,0.1,2.483c0,4.347,0,8.597,0,12.965
				c0,0.862,0.096,1.848-0.1,2.483c-0.287,0.909-1.123,1.618-2.317,1.531c-0.998-0.068-1.837-0.813-2.04-1.769
				c-0.111-0.538-0.035-1.217-0.035-1.844C55.483,17.094,55.483,12.648,55.483,8.312z"/>
		</g>
	</g>
</g>
</svg>
