<?xml version="1.0" encoding="utf-8"?>
<!-- Generator: Adobe Illustrator 16.0.0, SVG Export Plug-In . SVG Version: 6.00 Build 0)  -->
<!DOCTYPE svg PUBLIC "-//W3C//DTD SVG 1.1//EN" "http://www.w3.org/Graphics/SVG/1.1/DTD/svg11.dtd">
<svg version="1.1" id="Capa_1" xmlns="http://www.w3.org/2000/svg" xmlns:xlink="http://www.w3.org/1999/xlink" x="0px" y="0px"
	 width="80px" height="80px" viewBox="-20 -20 80 80" enable-background="new -20 -20 80 80" xml:space="preserve">
<g>
	<polygon fill="#020000" points="60,14.3 20.385,-19.932 19.998,-19.452 19.614,-19.932 -20,14.3 -15.039,20.469 19.998,-9.813 
		55.038,20.469 	"/>
	<path fill="#020000" d="M19.564-4.416L-7.38,19.062l0,0v40.87h52.74V18.246L19.564-4.416z M19.554,9.348
		c3.428,0,6.209,2.783,6.209,6.211c0,3.429-2.781,6.208-6.209,6.208c-3.429,0-6.211-2.779-6.211-6.208
		C13.346,12.129,16.123,9.348,19.554,9.348z M25.586,53.344H12.398V29.609h13.188V53.344z"/>
</g>
</svg>
