<?xml version="1.0" encoding="utf-8"?>
<!-- Generator: Adobe Illustrator 16.0.0, SVG Export Plug-In . SVG Version: 6.00 Build 0)  -->
<!DOCTYPE svg PUBLIC "-//W3C//DTD SVG 1.1//EN" "http://www.w3.org/Graphics/SVG/1.1/DTD/svg11.dtd">
<svg version="1.1" id="Capa_1" xmlns="http://www.w3.org/2000/svg" xmlns:xlink="http://www.w3.org/1999/xlink" x="0px" y="0px"
	 width="40px" height="40px" viewBox="-5 -5 40 40" enable-background="new -5 -5 40 40" xml:space="preserve">
<g>
	<polygon fill="#020000" points="34.972,12.154 15.193,-4.938 15,-4.698 14.808,-4.938 -4.971,12.154 -2.494,15.234 15,0.114 
		32.495,15.234 	"/>
	<path fill="#020000" d="M14.783,2.809L1.33,14.531l0,0v20.406h26.333V14.124L14.783,2.809z M14.778,9.681
		c1.711,0,3.1,1.39,3.1,3.101c0,1.712-1.389,3.1-3.1,3.1c-1.712,0-3.101-1.388-3.101-3.1C11.678,11.07,13.065,9.681,14.778,9.681z
		 M17.79,31.648h-6.585V19.798h6.585V31.648z"/>
</g>
</svg>
