<?xml version="1.0" encoding="utf-8"?>
<!-- Generator: Adobe Illustrator 16.0.0, SVG Export Plug-In . SVG Version: 6.00 Build 0)  -->
<!DOCTYPE svg PUBLIC "-//W3C//DTD SVG 1.1//EN" "http://www.w3.org/Graphics/SVG/1.1/DTD/svg11.dtd">
<svg version="1.1" id="Capa_1" xmlns="http://www.w3.org/2000/svg" xmlns:xlink="http://www.w3.org/1999/xlink" x="0px" y="0px"
	 width="227.221px" height="185.215px" viewBox="0 0 227.221 185.215" enable-background="new 0 0 227.221 185.215"
	 xml:space="preserve">
<g>
	<path opacity="0.8" fill-rule="evenodd" clip-rule="evenodd" fill="#4BC6E8" d="M23.56,48.196
		c-37.136,66.04,36.622,136.885,123.979,117.668c13.234,5.599,15.733,13.771,38.572,19.351c0-10.219,0-20.411,0-30.636
		c9.135-16.527,31.974-33.45,41.109-66.067c0-3.23,0-6.459,0-9.688C218.085-13.985,65.104-25.672,23.56,48.196z M76.435,96.421
		c-7.215,0-13.063-5.848-13.063-13.07c0-7.208,5.848-13.057,13.063-13.057c7.217,0,13.061,5.848,13.061,13.057
		C89.495,90.573,83.652,96.421,76.435,96.421z M119.834,96.421c-7.213,0-13.061-5.848-13.061-13.07
		c0-7.208,5.848-13.057,13.061-13.057c7.218,0,13.061,5.848,13.061,13.057C132.895,90.573,127.052,96.421,119.834,96.421z
		 M162.283,96.421c-7.208,0-13.062-5.848-13.062-13.07c0-7.208,5.854-13.057,13.062-13.057c7.218,0,13.062,5.848,13.062,13.057
		C175.344,90.573,169.5,96.421,162.283,96.421z"/>
	<path opacity="0.8" fill-rule="evenodd" clip-rule="evenodd" fill="#000001" d="M9.843,48.196
		c-37.135,66.04,36.623,136.885,123.981,117.668c13.234,5.599,15.728,13.771,38.566,19.351c0-10.219,0-20.411,0-30.636
		c9.136-16.527,31.975-33.45,41.109-66.067c0-3.23,0-6.459,0-9.688C204.365-13.985,51.388-25.672,9.843,48.196z M62.718,96.421
		c-7.215,0-13.063-5.848-13.063-13.07c0-7.208,5.848-13.057,13.063-13.057c7.217,0,13.061,5.848,13.061,13.057
		C75.779,90.573,69.935,96.421,62.718,96.421z M106.114,96.421c-7.208,0-13.057-5.848-13.057-13.07
		c0-7.208,5.848-13.057,13.057-13.057c7.227,0,13.07,5.848,13.07,13.057C119.184,90.573,113.34,96.421,106.114,96.421z
		 M148.57,96.421c-7.213,0-13.069-5.848-13.069-13.07c0-7.208,5.856-13.057,13.069-13.057s13.057,5.848,13.057,13.057
		C161.626,90.573,155.783,96.421,148.57,96.421z"/>
</g>
</svg>
