<?xml version="1.0" encoding="utf-8"?>
<!-- Generator: Adobe Illustrator 16.0.0, SVG Export Plug-In . SVG Version: 6.00 Build 0)  -->
<!DOCTYPE svg PUBLIC "-//W3C//DTD SVG 1.1//EN" "http://www.w3.org/Graphics/SVG/1.1/DTD/svg11.dtd">
<svg version="1.1" id="Capa_1" xmlns="http://www.w3.org/2000/svg" xmlns:xlink="http://www.w3.org/1999/xlink" x="0px" y="0px"
	 width="80px" height="80px" viewBox="-20 -20 80 80" enable-background="new -20 -20 80 80" xml:space="preserve">
<path fill="#020000" d="M18.294-19.84c1.923-0.127,6.4-0.545,7.838,0.824c1.779,1.686,0.429,5.632,1.276,7.713
	c0.55,1.342,1.825,1.773,3.522,2.464c1.452,0.596,2.674,1.551,4.479,1.313c2.772-0.364,3.329-4.482,6.552-4.593
	c2.271-0.085,3.974,2.763,5.118,3.939c1.406,1.437,3.959,3.104,4.003,5.091c0.064,3.119-4.169,3.882-4.483,7.059
	c-0.196,2.053,2.447,7.476,3.685,8.045c2.105,0.976,5.292-0.331,7.191,0.824c1.829,1.109,2.064,11.826,0.482,13.465
	c-1.613,1.667-5.137,0.336-7.359,1.153c-1.621,0.593-4.073,5.911-3.838,8.209c0.169,1.612,1.512,2.421,2.399,3.449
	c0.723,0.838,2.149,1.838,2.074,3.611c-0.083,1.971-2.683,3.688-3.993,5.091c-1.446,1.538-3.264,4.067-4.8,4.106
	c-2.763,0.056-4.307-4.607-7.036-4.765c-1.845-0.109-7.045,2.354-7.68,3.777c-1.269,2.842,0.725,5.973-1.118,7.88
	c-1.395,1.451-11.516,1.758-12.954-0.163c-1.535-2.053-0.145-5.292-1.12-7.556c-0.666-1.546-1.98-1.719-3.359-2.301
	c-1.231-0.521-2.544-1.484-3.997-1.475c-2.926,0.026-4.339,4.752-7.196,4.761c-2.053,0.013-3.535-2.645-4.957-4.104
	c-1.268-1.302-3.903-2.901-4-4.923c-0.157-3.304,4.234-4.096,4.477-7.227c0.146-1.859-2.201-7.436-3.837-8.048
	c-1.993-0.753-5.922,0.576-7.515-1.153c-1.435-1.555-1.811-12.159,0.479-13.463c1.844-1.046,6.029,0.021,7.676-1.313
	c0.928-0.749,3.08-5.484,3.039-7.225C-6.696,3.105-7.963,1.936-8.9,0.853c-0.805-0.938-2.357-1.922-2.392-3.448
	c-0.056-2.384,2.65-3.707,3.996-5.093c1.159-1.187,3.08-4.108,4.636-4.266c2.892-0.302,4.514,4.237,6.882,4.598
	C6.219-7.055,7.335-8.18,8.86-8.839c1.381-0.594,3.064-1.15,3.52-2.464c0.724-2.087-0.396-5.34,0.796-7.22
	C14.072-19.938,16.719-19.73,18.294-19.84z M8.699,20.065c0.049,6.215,4.951,11.592,11.514,11.49
	c6.104-0.088,11.864-5.533,11.032-13.132c-0.244-2.282-2.103-5.615-3.194-6.733c-1.935-1.983-5.647-3.666-9.598-3.123
	C13.095,9.311,8.646,13.775,8.699,20.065z"/>
</svg>
