<?xml version="1.0" encoding="utf-8"?>
<!-- Generator: Adobe Illustrator 16.0.0, SVG Export Plug-In . SVG Version: 6.00 Build 0)  -->
<!DOCTYPE svg PUBLIC "-//W3C//DTD SVG 1.1//EN" "http://www.w3.org/Graphics/SVG/1.1/DTD/svg11.dtd">
<svg version="1.1" id="Capa_1" xmlns="http://www.w3.org/2000/svg" xmlns:xlink="http://www.w3.org/1999/xlink" x="0px" y="0px"
	 width="100px" height="100px" viewBox="-15 -15 100 100" enable-background="new -15 -15 100 100" xml:space="preserve">
<g>
	<rect x="-15.001" y="-15" opacity="0.8" fill="#B0D135" enable-background="new    " width="100.002" height="100"/>
	<g>
		<path fill="#020000" d="M69.49,63.19c-4.322,0-8.639,0-13.03,0c0-0.269,0-0.472,0-0.677c0-6.656,0.006-13.319,0-19.979
			c-0.006-1.538-0.114-3.079-0.55-4.563c-0.566-1.919-1.596-3.489-3.558-4.209c-2.79-1.02-6.064-0.243-7.964,2.203
			c-1.057,1.364-1.685,2.861-1.646,4.608c0.015,0.586-0.028,1.168-0.028,1.752c0,6.737,0,13.479,0,20.219
			c0,0.645,0,0.645-0.619,0.645c-3.958,0.005-7.912-0.006-11.862,0.013c-0.473,0.004-0.593-0.127-0.591-0.592
			c0.041-9.137,0.074-18.28,0.091-27.411c0.005-3.354-0.026-6.709-0.042-10.062c-0.001-0.368,0-0.737,0-1.176
			c0.183,0,0.354,0,0.524,0c3.971,0,7.942,0.007,11.907-0.008c0.465-0.002,0.614,0.119,0.604,0.592
			c-0.032,1.405-0.015,2.818-0.015,4.227c0,0.174,0,0.35,0.101,0.56c0.302-0.403,0.598-0.808,0.905-1.208
			c2.424-3.164,5.646-4.786,9.608-5.03c2.389-0.149,4.729,0.118,6.968,0.969c2.14,0.813,3.956,2.112,5.401,3.902
			c2.219,2.744,3.184,5.956,3.586,9.388c0.063,0.547,0.137,1.092,0.203,1.635C69.49,47.048,69.49,55.119,69.49,63.19z"/>
		<path fill="#020000" d="M8.622,10.881c0.12-0.433,0.225-0.871,0.371-1.294c0.664-1.922,1.958-3.253,3.859-3.958
			c2.355-0.873,4.723-0.863,6.963,0.311c2.65,1.39,3.923,4.212,3.336,7.223c-0.503,2.563-2.066,4.23-4.541,5.011
			c-2.165,0.683-4.317,0.608-6.377-0.408c-1.966-0.973-3.077-2.603-3.51-4.727c-0.021-0.109-0.068-0.208-0.103-0.313
			C8.622,12.112,8.622,11.496,8.622,10.881z"/>
		<path fill="#020000" d="M22.41,63.185c-0.21,0-0.353,0-0.499,0c-3.983,0-7.972-0.003-11.954,0.016
			c-0.46,0-0.561-0.145-0.561-0.579c0.01-12.699,0.007-25.403,0.007-38.101c0-0.162,0-0.323,0-0.523c4.354,0,8.668,0,13.006,0
			C22.41,37.054,22.41,50.087,22.41,63.185z"/>
	</g>
</g>
</svg>
