<?xml version="1.0" encoding="utf-8"?>
<!-- Generator: Adobe Illustrator 16.0.0, SVG Export Plug-In . SVG Version: 6.00 Build 0)  -->
<!DOCTYPE svg PUBLIC "-//W3C//DTD SVG 1.1//EN" "http://www.w3.org/Graphics/SVG/1.1/DTD/svg11.dtd">
<svg version="1.1" id="Capa_1" xmlns="http://www.w3.org/2000/svg" xmlns:xlink="http://www.w3.org/1999/xlink" x="0px" y="0px"
	 width="150px" height="150px" viewBox="-25 -25 150 150" enable-background="new -25 -25 150 150" xml:space="preserve">
<g>
	<rect x="-25.002" y="-25" fill="#B0D135" enable-background="new    " width="150.004" height="150"/>
	<g>
		<path fill="#020000" d="M101.735,92.284c-6.483,0-12.958,0-19.546,0c0-0.403,0-0.708,0-1.014c0-9.984,0.01-19.979,0-29.97
			c-0.008-2.307-0.171-4.618-0.824-6.844c-0.85-2.879-2.394-5.234-5.338-6.313c-4.185-1.53-9.096-0.365-11.945,3.304
			c-1.586,2.047-2.527,4.292-2.469,6.912c0.021,0.879-0.043,1.752-0.043,2.629c0,10.104,0,20.219,0,30.328
			c0,0.968,0,0.968-0.928,0.968c-5.937,0.006-11.868-0.009-17.793,0.019c-0.71,0.006-0.89-0.189-0.887-0.889
			c0.062-13.705,0.11-27.419,0.137-41.115c0.007-5.031-0.039-10.063-0.063-15.093c-0.001-0.553,0-1.106,0-1.765
			c0.274,0,0.531,0,0.786,0c5.957,0,11.913,0.01,17.86-0.012c0.697-0.003,0.921,0.178,0.906,0.888
			c-0.048,2.108-0.022,4.227-0.022,6.341c0,0.261,0,0.525,0.151,0.84c0.453-0.604,0.897-1.212,1.357-1.812
			c3.637-4.746,8.469-7.179,14.413-7.545c3.582-0.224,7.094,0.177,10.451,1.454c3.211,1.219,5.934,3.167,8.101,5.853
			c3.329,4.116,4.776,8.934,5.379,14.082c0.095,0.82,0.206,1.638,0.305,2.452C101.735,68.072,101.735,80.179,101.735,92.284z"/>
		<path fill="#020000" d="M10.433,13.821c0.181-0.649,0.338-1.307,0.557-1.941c0.996-2.883,2.938-4.879,5.789-5.937
			c3.532-1.31,7.084-1.294,10.444,0.467c3.975,2.085,5.884,6.317,5.004,10.834c-0.755,3.844-3.1,6.345-6.812,7.516
			c-3.248,1.024-6.476,0.913-9.565-0.611c-2.949-1.46-4.615-3.905-5.265-7.091c-0.032-0.163-0.103-0.312-0.155-0.47
			C10.433,15.668,10.433,14.744,10.433,13.821z"/>
		<path fill="#020000" d="M31.115,92.278c-0.315,0-0.529,0-0.749,0c-5.974,0-11.958-0.006-17.931,0.023
			c-0.69,0-0.842-0.217-0.842-0.868c0.016-19.049,0.011-38.105,0.011-57.152c0-0.243,0-0.484,0-0.784c6.53,0,13.002,0,19.509,0
			C31.115,53.081,31.115,72.631,31.115,92.278z"/>
	</g>
</g>
</svg>
