<?xml version="1.0" encoding="utf-8"?>
<!-- Generator: Adobe Illustrator 16.0.0, SVG Export Plug-In . SVG Version: 6.00 Build 0)  -->
<!DOCTYPE svg PUBLIC "-//W3C//DTD SVG 1.1//EN" "http://www.w3.org/Graphics/SVG/1.1/DTD/svg11.dtd">
<svg version="1.1" id="Capa_1" xmlns="http://www.w3.org/2000/svg" xmlns:xlink="http://www.w3.org/1999/xlink" x="0px" y="0px"
	 width="768px" height="453.828px" viewBox="0 0 768 453.828" enable-background="new 0 0 768 453.828" xml:space="preserve">
<g>
	<path opacity="0.8" fill="#FFCC05" d="M100.012,102.197l18.925-54.061h81.091l-64.872,116.23v72.988h-70.28v-72.988L0,48.137
		h81.096L100.012,102.197z"/>
	<path opacity="0.8" fill="#F68E27" d="M331.157,131.948c-3.014-19.588-11.45-36.731-24.721-51.401
		c-10.769-11.917-23.703-20.811-38.774-26.489c-7.037-2.655-13.308-5.128-21.781-5.795c-2.211-0.173-9.593-1.339-21.855-0.332
		c-4.685,0.22-6.309,0.607-9.351,1.045c-10.2,1.475-19.821,4.843-28.916,9.565c-17.614,9.126-31.473,22.294-41.393,39.53
		c-5.599,9.724-9.491,20.078-11.567,31.113c-0.667,3.556-0.396,7.186-1.041,10.732c0,0.658,0,1.32,0,1.979
		c0.429,0.112,0.383,0.448,0.354,0.77c0.028,0.565,0.187,1.162-0.354,1.601c0,2.632,0,5.272,0,7.904
		c0.542,0.438,0.383,1.036,0.354,1.596c0.028,0.327,0.075,0.663-0.354,0.774c0,0.663,0,1.316,0,1.979
		c0.504,2.842,0.317,5.744,0.719,8.585c0.882,6.215,2.566,12.225,4.759,18.104c6.561,17.577,17.208,32.177,31.822,43.898
		c10.19,8.177,21.608,14.028,34.108,17.78c7.027,2.109,14.185,3.229,21.557,3.396c7.037,0.168,14.082,0.271,21.072-0.41
		c11.273-1.102,21.87-4.741,31.869-9.92c17.693-9.152,31.603-22.372,41.546-39.678c5.557-9.673,9.397-19.975,11.497-30.945
		c0.807-4.227,0.896-8.482,1.096-12.752C332.156,147.015,332.305,139.404,331.157,131.948z M314.742,149.016
		c0,0.583,0,1.167,0,1.764c-0.625-0.103-0.345-0.597-0.458-0.905c-0.438-0.616-0.308-1.306-0.364-2.081
		C314.649,148.003,314.667,148.531,314.742,149.016z M296.965,107.031c1.138,0.383,1.866,1.983,3.453,0.672
		c0.369-0.303,2.333,1.232,3.22,2.604c-1.857-1.236-3.472-0.364-5.161,0.243c-1.26,0.458-1.82-0.392-1.876-1.507
		C296.568,108.417,296.815,107.778,296.965,107.031z M296.498,117.054c0.429,0.462,1.064,0.812,0.63,1.54
		c-0.056,0.093-0.401,0.112-0.546,0.037C295.705,118.155,296.675,117.6,296.498,117.054z M282.015,117.157
		c-4.685,0.882-9.491,0.214-13.896,2.216c-0.541,0.695-1.222,0.457-2.221,0.275c0.928-0.28,1.582-0.476,2.226-0.672
		c1.33-1.269,3.252-2.295,1.969-4.675c1.312-1.189,2.515-2.566,3.999-3.485c0.56-0.345,1.745,0.14,2.463-0.542
		c0.355,1.591,0.672,2.982,0.952,4.382c0.247,1.176,0.91,1.502,2.016,1.125c1.026-0.355,1.549-0.934,1.078-2.077
		c-0.21-0.522-0.332-1.073-0.583-1.885c1.731,1.073,3.187,1.979,5.086,3.154C283.19,115.047,281.254,114.735,282.015,117.157z
		 M284.32,119.023c-0.122,0.112-0.271,0.383-0.467,0.42c-0.495,0.084-0.354-0.396-0.401-0.63c-0.037-0.182,0.019-0.564,0.411-0.396
		C284.077,118.505,284.348,118.58,284.32,119.023z M278.277,90.187c0.219-0.429-0.107-1.232,0.583-1.279
		c0.69-0.056,1.409,0.196,1.848,0.868c0.569,0.877,0.943,1.829,1.167,3.042c-1.502-0.093-2.692,0.476-3.975,0.831
		C278.044,92.45,277.722,91.27,278.277,90.187z M185.871,86.473c1.013-0.728,2.03-1.409,3.196-1.885
		c1.446-0.579,2.996-0.915,4.274-1.913c0.831-0.649,1.26,0.112,1.67,0.704c0.682,0.052,1.363,0.107,2.044,0.173
		c0,0,0.047,0.093,0.028,0.122c-0.028,0.051-0.084,0.084-0.14,0.121c-0.863,1.302-1.689,2.632-3.351,3.107
		c-0.336,0.098-0.723,0.453-0.831,0.775c-0.877,2.655-3.383,2.996-5.473,3.929c-0.159,0.065-0.415,0.187-0.49,0.121
		c-1.139-0.942-1.213-2.426-1.759-3.667C184.765,87.438,185.302,86.883,185.871,86.473z M198.026,99.696
		c0.653,0.075,1.586-0.354,1.372,0.971c-0.14,0.863,0.019,1.628-1.4,1.078c-0.961-0.378-1.437,0.929-2.142,1.451
		c-0.322,0.243-0.564,0.952-1.078,0.448c-0.43-0.429-0.299-0.942,0.243-1.32c0.765-0.527,1.39-1.11,1.558-2.146
		C196.715,99.313,197.564,99.874,198.026,99.696z M208.805,232.429c-12.491-3.26-23.61-9.176-33.409-17.519
		c-15.23-12.976-24.945-29.303-29.153-48.881c-1.022-4.773-1.544-9.603-1.754-14.474c-0.019-0.355-0.401-1.372,0.401-1.041
		c0.789,0.327,1.801-1.162,2.314,0.424c0.565,1.745,1.68,3.08,3.299,4.013c1.021,0.588,0.928,1.829,1.32,2.772
		c0.737,1.801,0.756,3.961,3.201,4.731c0.807,0.252,1.363,1.349,2.006,2.081c0.308,0.355,0.658,0.887,1.111,0.625
		c2.482-1.409,1.997,0.789,2.324,1.895c0.84,2.921,0.485,5.772-0.187,8.721c-0.831,3.663,0.565,7.274,2.875,9.771
		c2.557,2.758,4.825,5.711,7.176,8.6c2.109,2.594,4.368,4.89,7.503,6.178c1.941,0.803,3.36,2.161,4.484,3.966
		c4.26,6.84,9.291,13.098,15.043,18.739c2.991,2.93,6.528,5.169,10.004,7.487c0.751,0.504,1.484,1.035,2.226,1.559
		c0.616,0.279,1.409,0.195,1.913,1.008c-0.891,0.027-1.647-0.178-2.361-0.523C209.038,232.531,208.926,232.484,208.805,232.429z
		 M161.776,148.466c0.91,0.313,1.974-0.122,2.496-1.087c0.29-0.537,0.476-0.751,1.167-0.63c3.462,0.606,6.962,0.896,10.485,0.877
		c1.983-0.009,2.888,0.943,2.888,3.042c0,1.316,0.719,2.408,0.831,3.742c0.13,1.53-0.047,3.08,0.317,4.796
		c-1.334-1.152-2.809-1.456-4.078-1.269c-2.277,0.317-3.985-0.219-5.231-2.118c-0.742-1.129-1.861-0.168-2.403-0.396
		c-2.063-0.882-3.168,0.718-4.652,1.292c-0.294,0.112-0.733,0.308-0.789,0.541c-0.579,2.324-2.174,2.254-4.158,2.24
		c-1.554-0.009-1.871-0.672-1.917-1.75c-0.061-1.507,0.075-3.023,0.149-4.53c0.149-2.898-0.532-4.032-3.346-5.124
		c-1.003-0.383-0.9-1.106-0.69-1.74c0.574-1.727,1.278-3.406,1.829-4.848c1.647,1.185,1.586,3.929,4.25,4.078
		c0.681,0.037,0.467,0.448,0.504,0.793C159.578,147.766,160.819,148.134,161.776,148.466z M160.754,142.857
		c0.275,0.495,0.322,0.966,0.154,1.447c-0.126,0.019-0.313,0.084-0.331,0.056C160.231,143.79,160.814,143.384,160.754,142.857z
		 M162.527,144.84c0.588-0.088,1.204-0.555,1.745,0.033c0.047,0.051-0.004,0.29-0.084,0.345
		C163.535,145.712,163.073,145.092,162.527,144.84z M298.532,202.078c-2.072,2.063-4.386,3.948-4.498,7.256
		c-0.019,0.396-0.658,0.784-1.036,1.143c-14.12,13.662-30.861,21.886-50.393,24.377c-7.289,0.934-14.567,0.952-21.846-0.019
		c-0.915-0.121-1.796-0.158-0.532-1.231c1.111-0.942,0.07-1.521-0.504-2.016c-0.663-0.569-1.75-1.064-2.127,0.019
		c-0.411,1.166-0.971,0.933-1.535,0.504c-2.637-2.016-4.998-4.352-7.051-6.946c-0.382-0.49-0.382-1.246,0.332-1.731
		c0.453-0.313,0.854-0.835,0.593-1.349c-1.027-2.025,0.103-3.737,0.774-5.468c0.77-1.997,0.579-3.845-0.374-5.669
		c-0.476-0.928-0.504-1.694,0.635-1.974c4.829-1.204,5.413-5.044,5.749-9.071c0.122-1.418-0.396-2.716-0.7-4.06
		c-0.206-0.947-0.182-1.577,0.849-2.268c2.594-1.727,4.013-7.447,2.771-10.312c-0.149-0.336-0.392-0.751-0.709-0.896
		c-3.49-1.601-6.672-4.013-10.741-4.116c-2.744-0.07-5.385-0.915-7.093-2.958c-1.684-2.016-4.115-3.36-5.235-5.861
		c-0.392-0.886-1.12-1.479-2.035-1.74c-2.193-0.63-3.817-2.543-6.532-2.216c-1.951,0.233-2.828-2.884-1.577-4.956
		c0.98-1.624,0.812-1.974-1.101-2.1c-1.241-0.084-2.119-0.079-1.652-1.932c0.317-1.26-0.453-2.716-0.345-4.171
		c0.056-0.793-0.168-1.521,0.187-2.398c0.56-1.395-1.54-3.957-3.537-4.507c-1.129-0.313-2.268-0.7-3.471-0.438
		c-0.131,0.019-0.336,0.13-0.369,0.088c-1.19-1.484-3.131-0.705-4.568-1.535c-1.246-0.723-2.734-1.036-2.449-3.042
		c0.07-0.513-0.322-1.316-1.148-1.409c-1.05-0.112-1.097,0.999-1.759,1.474c-1.703-1.162-3.434-2.361-5.179-3.527
		c-1.82-1.223-3.947-0.765-4.927,1.162c-0.392,0.77-0.858,0.938-1.661,0.975c-2.132,0.084-4.302,0.233-4.41,3.191
		c-0.014,0.383-0.229,0.709-0.732,0.784c-0.653,0.107-0.765-0.373-0.952-0.774c-1.171-2.52,0.075-4.899,0.513-7.307
		c0.49-2.659,2.324-4.675,3.742-6.868c0.798-1.223,1.698-0.695,2.431,0.107c1.013,1.11,1.96,1.432,2.674-0.187
		c0.392-0.877,0.933-0.504,1.456-0.378c0.597,0.158,1.063,0.406,0.994,1.204c-0.098,1.05-0.07,2.109-0.107,3.164
		c-0.019,0.522-0.042,1.05-0.075,1.577c-0.028,0.625,0.168,1.549,0.728,1.381c1.988-0.602,2.669,2.688,4.703,1.475
		c0.938-0.564,0.719-2.828-0.466-3.35c-0.999-0.443-0.826-0.877-0.606-1.643c0.28-1.008,0.345-2.076,0.579-3.098
		c0.466-2.1,1.283-3.938,3.28-5.114c1.647-0.961,3.187-2.095,4.755-3.173c0.374-0.262,0.905-0.569,0.98-0.924
		c0.663-3.392,4.302-4.162,5.889-6.766c0.485-0.798,1.708-0.569,2.604-0.579c1.213-0.009,2.356-0.606,2.473-1.582
		c0.317-2.585,2.823-1.703,3.985-2.851c0.149-0.145,0.392-0.093,0.439,0.131c0.448,2.333,1.857,0.999,2.841,0.663
		c2.095-0.709,4.148-1.531,6.178-2.408c0.751-0.322,1.563-0.737,1.162-1.927c-0.299-0.896,0.121-0.91,1.003-0.826
		c1.563,0.149,2.599,1.483,4.381,1.325c3.168-0.28,4.144-1.4,3.112-4.517c-0.098-0.289-0.476-0.541-0.051-0.789
		c1.055-0.611,0.56-1.731,0.877-2.459c0.653-1.483,0.592-2.151-1.055-2.44c-0.224-0.042-0.359-0.256-0.336-0.602
		c0.159-2.594,0.266-5.198,0.434-7.788c0.023-0.294,0.294-0.779,0.495-0.807c1.694-0.215,2.636-1.792,4.111-2.272
		c1.021-0.332,1.899-0.873,2.855-1.283c1.367-0.579,1.68-1.362,0.588-2.52c-0.542-0.574-0.975-1.036-0.248-1.969
		c0.784-1.008-0.401-1.801-0.928-2.543c-0.588-0.835-0.639-1.554,0.308-1.853c1.624-0.522,2.917-1.857,4.722-1.866
		c0.453-0.448,0.779-0.504,0.821,0.271c0.019,0.453,0.019,0.896,0.028,1.353c0.047,0.047,0.084,0.112,0.14,0.131
		c2.034,0.858,2.604,1.708,3.107,3.868c0.215,0.961,0.187,1.236-0.858,1.582c-1.442,0.467-2.24,1.661-2.389,3.294
		c-0.126,1.46-0.658,2.767-0.252,4.396c0.513,2.071,2.23,2.473,3.519,3.177c1.101,0.607,2.398-0.471,3.378-1.474
		c1.624-1.666,2.935-3.803,5.492-4.26c1.917-0.336,3.364-1.773,5.119-2.263c1.773-0.495,3.714-0.49,5.413-1.358
		c1.12-0.564,2.697-0.448,3.191-1.997c0.625-1.993,1.325-4.022,0.835-6.122c-0.21-0.896-0.774-1.493,0.686-1.624
		c0.542-0.046,1.078-0.569,1.036-1.264c-0.038-0.611-0.588-0.966-1.055-1.059c-1.811-0.336-3.434-0.952-4.591-2.482
		c-0.038-0.047-0.122-0.065-0.177-0.075c-4.087-0.644-8.222-1.223-12.057,0.835c-1.526,0.817-2.426,0.7-3.411-0.621
		c-0.793-1.068-2.3-1.185-3.191-2.23c-0.396-0.476-1.311-0.308-1.656,0.075c-1.685,1.894-4.666,2.104-5.973,5.132
		c-0.336-2.333-1.204-2.095-2.403-1.19c-0.957,0.724-1.853,1.46-2.515,2.459c-0.159,0.238-0.093,0.737-0.602,0.551
		c-0.392-0.14-0.415-0.462-0.256-0.803c0.261-0.588,0.756-1.26-0.089-1.698c-0.803-0.411-1.339,0.336-1.875,0.765
		c-0.509,0.42-0.892,1.591-1.447,0.038c-0.061-0.182-0.49-0.401-0.658-0.346c-2.529,0.859-5.394-0.158-7.764,1.283
		c-2.875,1.759-6.575,1.694-9.09,4.209c-0.485,0.49-0.915-0.005-1.129-0.308c-0.476-0.676,0.327-0.728,0.625-0.896
		c5.982-3.354,12.253-6.061,18.875-7.848c23.456-6.341,45.825-3.649,67.135,8.086c2.337,1.288,3.597,3.84,6.145,4.787
		c0.621,0.364,1.475,0.248,2.09,0.896c-0.858,0.513-1.442-0.336-2.128-0.159c-0.345,0.317-0.663,0.56-1.199,0.266
		c-2.16-1.181-4.67-1.059-6.966-1.843c-2.417-0.831-5.254,1.297-5.394,3.817c-0.122,2.053-0.196,4.05-1.867,5.566
		c-0.21,0.191-0.401,0.691-0.298,0.863c1.017,1.745,1.698,4.162,3.434,4.853c1.815,0.723,1.488,2.193,2.188,3.238
		c0.48,0.705-0.789,0.523-1.078,0.971c-1.297,1.969-2.398,1.502-3.658-0.14c-1.083-1.404-2.79-2.202-3.248-4.25
		c-0.196-0.882-1.558-1.708-2.566-2.161c-1.026-0.452-2.127-0.177-2.221,1.334c-0.112,1.811-0.714,3.22-2.692,3.714
		c-0.816,0.205-1.125,0.971-0.873,1.736c0.289,0.891,0.383,1.708,0.215,2.66c-0.178,0.989,0.49,1.344,1.47,1.274
		c1.246-0.089,2.379-0.621,3.779-1.069c-0.425,1.428-1.255,2.846,0.919,3.108c0.056,0.009,0.149,0.093,0.145,0.112
		c-0.896,2.753,1.475,2.781,2.954,3.556c0.873,0.457,0.952,1.325,0.732,2.043c-0.275,0.896-1.087,0.215-1.656,0.252
		c-1.549,0.089-3.047-1.129-4.685,0.215c-0.915,0.751-1.325,1.386-1.059,2.436c0.369,1.446,0.411,2.884-0.098,4.274
		c-0.523,1.438,0.676,2.305,0.979,3.462c0.383,1.428,1.27,1.904,2.688,1.428c0.168-0.056,0.522,0.154,0.644,0.336
		c0.243,0.35-0.065,0.588-0.308,0.803c-0.798,0.69-1.554,1.437-2.408,2.053c-1.391,1.018-2.174,2.305-2.482,4.045
		c-0.383,2.146-2.455,2.767-4.05,3.682c-0.966,0.551-1.656,1.162-2.156,2.146c-1.47,2.865-3.303,5.524-4.526,8.525
		c-0.364,0.9-0.569,1.768-0.163,2.664c1.12,2.501,1.213,4.918-0.397,7.27c-0.858,1.269-0.308,2.454-0.159,3.84
		c0.336,2.972,2.314,4.652,3.705,6.785c2.352,3.606,6.038,5.734,9.537,8.04c0.243,0.159,0.672,0.224,0.934,0.126
		c3.5-1.279,7.19-0.602,10.769-1.06c1.526-0.196,2.692-1.306,4.316-1.231c0.957,0.046,1.479,0.233,1.661,1.147
		c0.257,1.307,1.022,1.601,2.3,1.438c2.3-0.28,3.332,1.157,2.109,3.173c-1.456,2.408-1.438,4.601-0.117,6.999
		c2.085,3.77,1.171,7.68,0.042,11.432c-0.429,1.446-1.731,2.711-2.707,3.961c-1.353,1.759-2.398,3.388-1.666,5.665
		c0.079,0.248,0.112,0.551,0.023,0.779c-1.871,4.862-2.137,10.34-5.562,14.609c-0.084,0.107-0.177,0.205-0.224,0.327
		c-0.308,0.798-1.484,1.526-0.653,2.421c0.681,0.737,1.68,0.075,2.576-0.051c4.517-0.639,8.306-2.739,11.824-5.482
		c0.989-0.774,2.035-1.479,2.791-2.492c1.488-1.988,4.19-2.44,5.59-4.517c0.401-0.597,0.952-1.101,1.306-1.712
		c1.274-2.188,3.537-4.288,6.159-5.576C299.689,200.711,299.176,201.439,298.532,202.078z M199.781,81.676
		c0.075-0.672,0.243-1.27,1.059-1.372c0.415-0.051,0.546,0.215,0.658,0.551c-0.373,0.55-0.681,1.19-1.18,1.619
		C200.126,82.628,199.734,82.124,199.781,81.676z M203.467,83.767c0.448,0.989,1.717,1.157,2.212,2.221
		c-0.682,0.374-1.344,0.733-2.455,1.339c1.358-2.291-0.723-2.758-1.213-3.971C203.023,82.814,203.038,82.805,203.467,83.767z
		 M203.252,79.674c1.167-0.784,1.559-2.132,3.248-1.778C205.595,78.802,205.198,80.094,203.252,79.674z M303.539,196.134
		c-0.21,0.121-0.443,0.214-0.663,0.327c-0.079-0.065-0.163-0.131-0.247-0.206c0.177-0.229,0.345-0.471,0.536-0.69
		c0.443-0.495,0.472-1.4,1.367-1.428c0.14-0.005,0.42,0.21,0.411,0.289C304.804,195.247,304.206,195.728,303.539,196.134z
		 M305.247,125.257c-1.255-0.341-2.319-0.177-3.56,0.252c-1.204,0.42-2.972-0.569-4.414-1.143c-2.417-0.966-3.182-0.826-4.778,1.348
		c-0.336,0.458-0.621,0.383-0.961,0.112c-2.137-1.699-4.88-1.829-7.288-2.818c-0.625-0.509-0.219-1.129-0.047-1.787
		c0.168,0.303,0.341,0.611,0.513,0.919c1.246,0.803,1.838-0.242,2.03-1.026c0.527-2.184,1.46-4.218,2.132-6.472
		c1.363,1.115,2.455,2.463,3.672,3.691c1.32,1.334,2.44,3.145,4.638,3.336c0.933,0.084,1.936,0.602,2.198-1.05
		c0.145-0.942,1.353-0.205,1.997-0.625c0.476-0.308,0.532,0.103,0.718,0.495c0.635,1.32,1.591,2.062,3.117,1.12
		C305.573,122.849,305.317,123.946,305.247,125.257z M307.93,190.955c-0.261,0.457-0.504,1.157-1.26,0.364
		c-0.373-0.396-1.167-0.168-0.858-1.292c1.67-6.103,4.993-11.311,8.604-16.382c0.191-0.266,0.396-0.522,1.041-0.467
		C313.594,179.485,311.079,185.355,307.93,190.955z M317.192,157.28c-0.341-1.376,0.761-1.442,1.475-2.095
		C318.895,156.58,317.882,156.715,317.192,157.28z"/>
	<path opacity="0.9" fill="#EC1C24" d="M409.957,147.7V46.34h70.279V147.7c0,54.061-37.851,91.904-91.901,91.904
		c-54.065,0-91.912-37.844-91.912-91.904V46.34h70.28V147.7c0,14.875,9.462,24.333,21.632,24.333
		C400.494,172.034,409.957,162.576,409.957,147.7z"/>
	<path opacity="0.8" fill="#4BC6E8" d="M618.123,46.34v62.175h-51.359v127.04h-70.279v-127.04H445.13V46.34H618.123z"/>
	<path opacity="0.8" fill="#B0D135" d="M654.466,111.212h43.255V46.34H768v189.214h-70.279v-64.87h-43.255v64.87h-70.27V46.34h70.27
		V111.212z"/>
	<path fill="#020000" d="M119.894,267.657l14.049,76.803l14.054-76.803h54.313l-36.525,131.115h-63.682L65.576,267.657H119.894z"/>
	<path fill="#020000" d="M266.01,398.772h-48.695V267.657h48.695V398.772z"/>
	<path fill="#020000" d="M338.138,357.571c0-9.369-50.575-9.369-50.575-50.57c0-21.538,20.601-42.144,53.384-42.144
		c33.716,0,50.57,20.605,50.57,20.605l-17.796,28.099c0,0-11.236-10.321-24.347-10.321c-4.68,0-7.489,2.818-7.489,5.637
		c0,9.359,50.571,9.359,50.571,50.561c0,21.548-20.596,42.153-53.384,42.153c-41.21,0-58.064-22.481-58.064-22.481l17.787-28.099
		c0,0,13.121,12.179,31.851,12.179C335.329,363.189,338.138,360.371,338.138,357.571z"/>
	<path fill="#020000" d="M458.026,398.772h-48.704V267.657h48.704V398.772z"/>
	<path fill="#020000" d="M680.587,344.563v58.063h-48.704V271.511h54.321l31.832,58.064v-58.064h48.704v131.115h-54.313
		L680.587,344.563z"/>
	<g id="atIQsy.tif_3_">
		<g>
			<path d="M539.822,264.288c5.86-0.551,11.795-0.373,17.628,0.522c13.896,2.118,26.139,7.839,36.628,17.162
				c12.15,10.815,19.831,24.263,22.91,40.268c0.565,2.949,0.878,5.954,1.303,8.931c0,3.042,0,6.065,0,9.099
				c-0.206,1.493-0.416,2.986-0.611,4.479c-2.128,16.341-9.062,30.339-20.755,41.92c-10.629,10.526-23.377,17.105-38.163,19.588
				c-3.299,0.56-6.64,0.83-9.962,1.231c-1.513,0-3.028,0-4.545,0c-0.798-0.103-1.596-0.242-2.394-0.299
				c-13.303-0.896-25.495-5.058-36.344-12.794c-16.047-11.423-25.985-26.857-29.499-46.296c-0.606-3.341-0.845-6.738-1.25-10.098
				c0-1.735,0-3.472,0-5.207c0.195-1.699,0.373-3.397,0.578-5.104c2.585-21.156,12.589-37.963,29.774-50.496
				c6.191-4.517,13.014-7.83,20.357-10.088C530.158,265.679,534.97,264.736,539.822,264.288z M546.602,275.29
				c-33.376-0.019-60.393,26.942-60.448,60.313c-0.056,33.26,27.012,60.406,60.322,60.49c33.353,0.084,60.509-27.044,60.495-60.453
				C606.957,302.241,580.006,275.3,546.602,275.29z"/>
			<path fill-rule="evenodd" clip-rule="evenodd" fill="#FFFFFF" d="M546.602,275.29c33.404,0.01,60.355,26.951,60.369,60.351
				c0.014,33.409-27.143,60.537-60.495,60.453c-33.311-0.084-60.378-27.23-60.322-60.49
				C486.209,302.232,513.226,275.271,546.602,275.29z M534.568,283.026c-13.83,3.406-24.581,10.816-32.682,22.351
				c1.409,0.896,2.744,1.633,3.925,2.557c0.425,0.336,0.509,1.111,0.741,1.681c-0.578-0.02-1.264,0.158-1.717-0.084
				c-1.362-0.719-2.632-1.615-4.031-2.501c-7.372,12.233-9.743,25.168-7.167,39.138c1.601-0.363,3.01-0.783,4.442-0.951
				c0.588-0.065,1.236,0.41,1.856,0.635c-0.48,0.42-0.896,1.026-1.446,1.194c-1.418,0.447-2.893,0.709-4.451,1.063
				c3.527,13.83,11.082,24.563,22.793,32.606c1.022-1.596,1.923-3.126,2.973-4.554c0.28-0.393,1.008-0.458,1.535-0.673
				c0.014,0.569,0.233,1.251-0.005,1.681c-0.84,1.549-1.838,3.005-2.855,4.609c12.271,7.167,25.169,9.444,39.064,6.738
				c-0.346-1.614-0.733-3.08-0.934-4.563c-0.07-0.522,0.326-1.102,0.514-1.652c0.447,0.43,1.129,0.775,1.297,1.288
				c0.457,1.419,0.7,2.902,1.055,4.489c13.666-3.574,24.254-11.124,32.177-22.715c-1.251-0.803-2.473-1.493-3.565-2.36
				c-0.373-0.299-0.41-1.027-0.592-1.55c0.527-0.009,1.157-0.205,1.572,0c1.231,0.645,2.375,1.446,3.648,2.24
				c7.13-12.076,9.295-24.833,6.804-38.598c-1.475,0.326-2.716,0.682-3.99,0.83c-0.443,0.057-0.947-0.41-1.423-0.644
				c0.341-0.401,0.616-1.026,1.045-1.166c1.214-0.411,2.501-0.616,3.943-0.943c-3.411-13.587-10.84-24.207-22.28-32.232
				c-0.934,1.456-1.685,2.771-2.595,3.966c-0.299,0.393-1.017,0.467-1.53,0.672c-0.019-0.569-0.242-1.25-0.01-1.688
				c0.715-1.363,1.605-2.65,2.474-4.041c-12.062-7.298-24.842-9.584-38.648-7.204c0.35,1.633,0.732,3.042,0.914,4.479
				c0.065,0.504-0.341,1.072-0.532,1.614c-0.443-0.43-1.124-0.774-1.292-1.298C535.151,286.078,534.923,284.632,534.568,283.026z"/>
			<path fill-rule="evenodd" clip-rule="evenodd" d="M534.568,283.026c0.354,1.605,0.583,3.052,1.026,4.414
				c0.168,0.523,0.849,0.868,1.292,1.298c0.191-0.542,0.598-1.11,0.532-1.614c-0.182-1.438-0.564-2.847-0.914-4.479
				c13.807-2.38,26.587-0.094,38.648,7.204c-0.868,1.391-1.759,2.678-2.474,4.041c-0.232,0.438-0.009,1.119,0.01,1.688
				c0.514-0.205,1.231-0.279,1.53-0.672c0.91-1.194,1.661-2.51,2.595-3.966c11.44,8.025,18.869,18.646,22.28,32.232
				c-1.442,0.327-2.729,0.532-3.943,0.943c-0.429,0.14-0.704,0.765-1.045,1.166c0.476,0.233,0.979,0.7,1.423,0.644
				c1.274-0.148,2.516-0.504,3.99-0.83c2.491,13.765,0.326,26.521-6.804,38.598c-1.273-0.794-2.417-1.596-3.648-2.24
				c-0.415-0.205-1.045-0.009-1.572,0c0.182,0.522,0.219,1.251,0.592,1.55c1.093,0.867,2.314,1.558,3.565,2.36
				c-7.923,11.591-18.511,19.141-32.177,22.715c-0.354-1.587-0.598-3.07-1.055-4.489c-0.168-0.513-0.85-0.858-1.297-1.288
				c-0.188,0.551-0.584,1.13-0.514,1.652c0.2,1.483,0.588,2.949,0.934,4.563c-13.896,2.706-26.793,0.429-39.064-6.738
				c1.018-1.604,2.016-3.061,2.855-4.609c0.238-0.43,0.019-1.111,0.005-1.681c-0.527,0.215-1.255,0.28-1.535,0.673
				c-1.05,1.428-1.95,2.958-2.973,4.554c-11.711-8.044-19.266-18.776-22.793-32.606c1.559-0.354,3.033-0.616,4.451-1.063
				c0.551-0.168,0.966-0.774,1.446-1.194c-0.62-0.225-1.269-0.7-1.856-0.635c-1.433,0.168-2.842,0.588-4.442,0.951
				c-2.576-13.97-0.205-26.904,7.167-39.138c1.399,0.886,2.669,1.782,4.031,2.501c0.453,0.242,1.139,0.064,1.717,0.084
				c-0.232-0.569-0.316-1.345-0.741-1.681c-1.181-0.924-2.516-1.661-3.925-2.557C509.987,293.843,520.738,286.433,534.568,283.026z
				 M577.421,297.071c-0.07-0.074-0.14-0.149-0.205-0.224c-0.168,0.131-0.336,0.242-0.48,0.392
				c-11.764,11.021-23.526,22.033-35.28,33.073c-0.425,0.401-0.793,0.887-1.092,1.391c-8.259,13.699-16.499,27.417-24.749,41.126
				c-0.214,0.354-0.401,0.719-0.602,1.083c0.522-0.057,0.774-0.252,1.013-0.477c11.637-10.918,23.274-21.837,34.893-32.765
				c0.504-0.476,0.914-1.073,1.273-1.671c5.222-8.65,10.429-17.311,15.636-25.971C571.028,307.71,574.22,302.391,577.421,297.071z
				 M542.641,351.179c0.027,0.187,0.056,0.373,0.084,0.569c0.662,0.121,1.334,0.354,1.997,0.326c1.47-0.056,2.132,0.672,2.688,1.97
				c2.024,4.769,4.189,9.481,6.304,14.213c0.219,0.494,0.476,0.97,0.714,1.455c0.196-0.037,0.392-0.084,0.588-0.121
				c0-5.618,0.065-11.235-0.033-16.845c-0.027-1.856,0.164-3.368,2.021-4.273c0.561-0.28,1.078-0.784,1.428-1.307
				c0.766-1.157,1.605-1.045,2.749-0.569c2.398,1.008,4.857,1.866,7.302,2.781c-1.502-1.979-3.061-3.771-4.819-5.356
				c-1.34-1.204-2.012-2.343-1.134-4.135c0.363-0.746,0.494-1.68,0.494-2.52c0-0.989,0.438-1.391,1.278-1.764
				c4.797-2.09,9.57-4.246,14.349-6.393c0.652-0.289,1.292-0.606,1.936-0.914c-0.037-0.196-0.074-0.401-0.107-0.598
				c-5.986,0-11.968,0.019-17.954,0c-2.096-0.009-2.674,0.803-1.941,2.8c3.831,10.479-4.605,21.193-15.729,20.036
				C544.143,350.46,543.378,350.945,542.641,351.179z M525.544,320.775c-0.074,0.103-0.149,0.205-0.224,0.308
				c1.959,1.932,3.9,3.873,5.897,5.758c0.658,0.616,0.742,1.12,0.354,1.95c-0.522,1.12-0.984,2.314-1.157,3.527
				c-0.158,1.092-0.728,1.54-1.614,1.941c-5.151,2.37-10.293,4.769-15.426,7.167c-0.346,0.158-0.663,0.383-1.362,0.793
				c6.504,0,12.561,0.01,18.612-0.009c1.209-0.01,1.96-1.194,1.563-2.566c-2.716-9.285,4.568-19.606,15.594-18.897
				c0.774,0.056,1.582-0.457,2.37-0.709c0.037-0.206,0.065-0.411,0.103-0.616c-2.076,0.364-2.333-1.157-2.893-2.352
				c-2.053-4.405-4.097-8.819-6.149-13.224c-0.397-0.85-0.821-1.689-1.232-2.529c-0.093,0.028-0.187,0.047-0.271,0.075
				c0,0.513,0,1.035,0,1.559c0,5.3-0.028,10.601,0.019,15.901c0.01,1.186-0.149,2.007-1.399,2.538
				c-0.971,0.411-1.866,1.11-2.622,1.857c-0.747,0.737-1.405,0.737-2.296,0.401C530.803,322.65,528.166,321.727,525.544,320.775z"/>
			<path fill-rule="evenodd" clip-rule="evenodd" fill="#FFFFFF" d="M577.421,297.071c-3.201,5.319-6.393,10.639-9.594,15.958
				c-5.207,8.66-10.414,17.32-15.636,25.971c-0.359,0.598-0.77,1.195-1.273,1.671c-11.618,10.928-23.256,21.847-34.893,32.765
				c-0.238,0.225-0.49,0.42-1.013,0.477c0.2-0.364,0.388-0.729,0.602-1.083c8.25-13.709,16.49-27.427,24.749-41.126
				c0.299-0.504,0.667-0.989,1.092-1.391c11.754-11.04,23.517-22.052,35.28-33.073c0.145-0.149,0.313-0.261,0.48-0.392
				C577.281,296.922,577.351,296.997,577.421,297.071z M551.217,335.697c0.009-2.576-2.063-4.657-4.602-4.639
				c-2.565,0.019-4.656,2.128-4.619,4.647c0.042,2.482,2.063,4.517,4.545,4.563C549.084,340.316,551.217,338.235,551.217,335.697z"
				/>
			<path fill-rule="evenodd" clip-rule="evenodd" fill="#FFFFFF" d="M542.641,351.179c0.737-0.233,1.502-0.719,2.211-0.644
				c11.124,1.157,19.561-9.557,15.729-20.036c-0.732-1.997-0.154-2.809,1.941-2.8c5.986,0.019,11.968,0,17.954,0
				c0.033,0.196,0.07,0.401,0.107,0.598c-0.644,0.308-1.283,0.625-1.936,0.914c-4.778,2.146-9.552,4.303-14.349,6.393
				c-0.84,0.373-1.278,0.774-1.278,1.764c0,0.84-0.131,1.773-0.494,2.52c-0.878,1.792-0.206,2.931,1.134,4.135
				c1.759,1.586,3.317,3.378,4.819,5.356c-2.444-0.915-4.903-1.773-7.302-2.781c-1.144-0.476-1.983-0.588-2.749,0.569
				c-0.35,0.522-0.867,1.026-1.428,1.307c-1.856,0.905-2.048,2.417-2.021,4.273c0.099,5.609,0.033,11.227,0.033,16.845
				c-0.196,0.037-0.392,0.084-0.588,0.121c-0.238-0.485-0.495-0.961-0.714-1.455c-2.114-4.731-4.279-9.444-6.304-14.213
				c-0.556-1.298-1.218-2.025-2.688-1.97c-0.663,0.028-1.335-0.205-1.997-0.326C542.696,351.552,542.668,351.365,542.641,351.179z"
				/>
			<path fill-rule="evenodd" clip-rule="evenodd" fill="#FFFFFF" d="M525.544,320.775c2.622,0.951,5.259,1.875,7.867,2.874
				c0.891,0.336,1.549,0.336,2.296-0.401c0.756-0.747,1.651-1.446,2.622-1.857c1.25-0.531,1.409-1.353,1.399-2.538
				c-0.047-5.301-0.019-10.602-0.019-15.901c0-0.523,0-1.046,0-1.559c0.084-0.028,0.178-0.047,0.271-0.075
				c0.411,0.84,0.835,1.68,1.232,2.529c2.053,4.404,4.097,8.818,6.149,13.224c0.56,1.194,0.816,2.716,2.893,2.352
				c-0.037,0.205-0.065,0.41-0.103,0.616c-0.788,0.252-1.596,0.765-2.37,0.709c-11.025-0.709-18.31,9.612-15.594,18.897
				c0.396,1.372-0.354,2.557-1.563,2.566c-6.052,0.019-12.108,0.009-18.612,0.009c0.699-0.41,1.017-0.635,1.362-0.793
				c5.133-2.398,10.274-4.797,15.426-7.167c0.887-0.401,1.456-0.85,1.614-1.941c0.173-1.213,0.635-2.407,1.157-3.527
				c0.388-0.83,0.304-1.334-0.354-1.95c-1.997-1.885-3.938-3.826-5.897-5.758C525.395,320.98,525.47,320.878,525.544,320.775z"/>
			<path fill-rule="evenodd" clip-rule="evenodd" d="M551.217,335.697c0,2.538-2.133,4.619-4.676,4.572
				c-2.482-0.047-4.503-2.081-4.545-4.563c-0.037-2.52,2.054-4.629,4.619-4.647C549.154,331.04,551.226,333.121,551.217,335.697z"/>
		</g>
	</g>
</g>
</svg>
