<?xml version="1.0" encoding="utf-8"?>
<!-- Generator: Adobe Illustrator 16.0.0, SVG Export Plug-In . SVG Version: 6.00 Build 0)  -->
<!DOCTYPE svg PUBLIC "-//W3C//DTD SVG 1.1//EN" "http://www.w3.org/Graphics/SVG/1.1/DTD/svg11.dtd">
<svg version="1.1" id="Capa_1" xmlns="http://www.w3.org/2000/svg" xmlns:xlink="http://www.w3.org/1999/xlink" x="0px" y="0px"
	 width="768px" height="453.828px" viewBox="0 0 768 453.828" enable-background="new 0 0 768 453.828" xml:space="preserve">
<g>
	<path opacity="0.8" fill="#FFCC05" d="M75.802,238.616h71.248v106.869c0,57.533-35.625,93.158-76.724,93.158
		c-35.62,0-54.803-16.444-54.803-16.444l19.183-57.533c0,0,8.224,5.48,19.183,5.48c12.327,0,21.914-9.597,21.914-24.661V238.616z"/>
	<path opacity="0.8" fill="#F68E27" d="M309.576,322.361c-3.105-20.158-11.791-37.812-25.445-52.914
		c-11.087-12.259-24.402-21.415-39.915-27.265c-7.242-2.733-13.703-5.275-22.425-5.962c-2.274-0.181-9.871-1.377-22.497-0.345
		c-4.821,0.229-6.493,0.625-9.625,1.076c-10.503,1.514-20.406,4.988-29.768,9.843c-18.132,9.403-32.4,22.957-42.613,40.696
		c-5.76,10.007-9.763,20.667-11.905,32.031c-0.688,3.659-0.408,7.396-1.071,11.046c0,0.68,0,1.356,0,2.036
		c0.444,0.113,0.395,0.461,0.369,0.793c0.026,0.584,0.187,1.195-0.369,1.65c0,2.709,0,5.422,0,8.135
		c0.555,0.451,0.395,1.063,0.369,1.646c0.026,0.332,0.075,0.677-0.369,0.796c0,0.677,0,1.354,0,2.033
		c0.522,2.928,0.33,5.911,0.741,8.843c0.907,6.399,2.645,12.58,4.899,18.634c6.751,18.092,17.714,33.121,32.761,45.186
		c10.491,8.415,22.242,14.445,35.111,18.303c7.234,2.166,14.599,3.328,22.186,3.502c7.249,0.171,14.497,0.277,21.696-0.427
		c11.604-1.135,22.512-4.886,32.807-10.213c18.21-9.416,32.53-23.024,42.766-40.842c5.721-9.957,9.674-20.568,11.833-31.86
		c0.832-4.347,0.926-8.729,1.129-13.12C310.606,337.873,310.76,330.042,309.576,322.361z M292.683,339.94c0,0.594,0,1.195,0,1.807
		c-0.651-0.099-0.359-0.611-0.475-0.933c-0.454-0.632-0.319-1.343-0.375-2.139C292.582,338.892,292.599,339.438,292.683,339.94z
		 M274.378,296.716c1.174,0.393,1.918,2.043,3.559,0.69c0.375-0.312,2.398,1.268,3.311,2.686c-1.908-1.281-3.572-0.383-5.313,0.242
		c-1.298,0.472-1.872-0.403-1.934-1.548C273.97,298.145,274.228,297.484,274.378,296.716z M273.901,307.038
		c0.44,0.468,1.09,0.83,0.646,1.582c-0.058,0.092-0.413,0.112-0.56,0.033C273.08,308.165,274.081,307.591,273.901,307.038z
		 M258.986,307.134c-4.817,0.912-9.77,0.222-14.3,2.289c-0.555,0.71-1.259,0.468-2.286,0.279c0.955-0.286,1.626-0.488,2.29-0.689
		c1.367-1.313,3.35-2.368,2.026-4.814c1.353-1.227,2.59-2.641,4.119-3.587c0.574-0.359,1.797,0.144,2.535-0.554
		c0.362,1.637,0.691,3.064,0.984,4.507c0.251,1.213,0.931,1.551,2.069,1.154c1.063-0.365,1.595-0.956,1.112-2.136
		c-0.219-0.536-0.345-1.106-0.603-1.94c1.784,1.104,3.282,2.033,5.241,3.246C260.199,304.967,258.205,304.643,258.986,307.134z
		 M261.36,309.057c-0.121,0.113-0.28,0.396-0.48,0.438c-0.509,0.086-0.366-0.41-0.417-0.652c-0.036-0.188,0.022-0.574,0.427-0.407
		C261.109,308.527,261.393,308.603,261.36,309.057z M255.141,279.376c0.224-0.443-0.108-1.268,0.603-1.318
		c0.711-0.059,1.445,0.205,1.898,0.889c0.584,0.908,0.972,1.893,1.201,3.143c-1.542-0.096-2.769,0.482-4.091,0.848
		C254.901,281.703,254.571,280.49,255.141,279.376z M160.016,275.554c1.041-0.749,2.088-1.452,3.294-1.941
		c1.484-0.598,3.085-0.942,4.397-1.968c0.857-0.666,1.298,0.106,1.719,0.725c0.702,0.055,1.402,0.105,2.104,0.171
		c0.015,0.003,0.051,0.103,0.033,0.13c-0.033,0.051-0.093,0.085-0.147,0.123c-0.89,1.343-1.739,2.709-3.451,3.201
		c-0.34,0.099-0.741,0.465-0.852,0.792c-0.9,2.734-3.483,3.086-5.636,4.049c-0.163,0.068-0.427,0.191-0.502,0.12
		c-1.174-0.967-1.249-2.498-1.811-3.766C158.876,276.548,159.432,275.974,160.016,275.554z M172.531,289.162
		c0.675,0.082,1.631-0.362,1.413,0.997c-0.147,0.892,0.015,1.682-1.445,1.11c-0.989-0.386-1.474,0.957-2.202,1.5
		c-0.333,0.246-0.581,0.978-1.112,0.454c-0.438-0.434-0.308-0.967,0.251-1.353c0.789-0.543,1.435-1.145,1.604-2.214
		C171.18,288.775,172.054,289.343,172.531,289.162z M183.625,425.794c-12.859-3.345-24.305-9.44-34.391-18.026
		c-15.683-13.359-25.683-30.162-30.008-50.32c-1.054-4.91-1.592-9.892-1.811-14.903c-0.015-0.362-0.413-1.408,0.415-1.066
		c0.812,0.338,1.855-1.195,2.382,0.434c0.582,1.801,1.729,3.171,3.397,4.135c1.047,0.604,0.953,1.886,1.355,2.853
		c0.765,1.852,0.782,4.076,3.3,4.865c0.829,0.264,1.399,1.395,2.063,2.152c0.318,0.359,0.677,0.902,1.143,0.64
		c2.554-1.452,2.059,0.81,2.39,1.954c0.868,3,0.505,5.935-0.188,8.972c-0.856,3.772,0.578,7.486,2.96,10.059
		c2.629,2.836,4.964,5.881,7.382,8.853c2.169,2.672,4.495,5.033,7.725,6.358c2.002,0.827,3.459,2.225,4.618,4.083
		c4.387,7.045,9.558,13.479,15.484,19.291c3.082,3.017,6.722,5.323,10.298,7.704c0.776,0.52,1.529,1.069,2.292,1.605
		c0.634,0.284,1.449,0.195,1.965,1.035c-0.914,0.027-1.693-0.178-2.428-0.532C183.862,425.903,183.748,425.855,183.625,425.794z
		 M135.212,339.366c0.936,0.321,2.031-0.123,2.569-1.121c0.301-0.543,0.49-0.771,1.201-0.646c3.565,0.625,7.167,0.919,10.793,0.905
		c2.042-0.01,2.978,0.967,2.978,3.127c-0.005,1.355,0.735,2.483,0.849,3.854c0.133,1.582-0.042,3.171,0.33,4.938
		c-1.374-1.183-2.891-1.49-4.199-1.309c-2.342,0.334-4.104-0.219-5.385-2.181c-0.76-1.158-1.915-0.164-2.472-0.403
		c-2.124-0.905-3.263,0.738-4.792,1.33c-0.304,0.112-0.753,0.313-0.813,0.557c-0.596,2.395-2.234,2.319-4.276,2.306
		c-1.604-0.01-1.927-0.687-1.973-1.804c-0.065-1.548,0.075-3.109,0.154-4.66c0.152-2.986-0.548-4.154-3.446-5.271
		c-1.03-0.396-0.926-1.142-0.71-1.798c0.587-1.773,1.315-3.505,1.882-4.991c1.696,1.22,1.632,4.049,4.377,4.199
		c0.699,0.041,0.477,0.464,0.516,0.819C132.952,338.648,134.227,339.028,135.212,339.366z M134.158,333.599
		c0.287,0.502,0.333,0.987,0.161,1.482c-0.132,0.021-0.323,0.09-0.34,0.059C133.624,334.552,134.224,334.139,134.158,333.599z
		 M135.988,335.639c0.606-0.096,1.24-0.577,1.793,0.03c0.046,0.055-0.005,0.294-0.083,0.353
		C137.02,336.534,136.547,335.892,135.988,335.639z M275.989,394.552c-2.13,2.125-4.51,4.069-4.628,7.476
		c-0.017,0.407-0.678,0.803-1.064,1.183c-14.538,14.06-31.773,22.519-51.875,25.085c-7.503,0.956-14.996,0.98-22.494-0.018
		c-0.94-0.13-1.847-0.16-0.545-1.271c1.141-0.967,0.072-1.565-0.52-2.074c-0.682-0.584-1.8-1.094-2.192,0.024
		c-0.423,1.202-0.998,0.963-1.578,0.519c-2.711-2.084-5.141-4.476-7.261-7.154c-0.395-0.502-0.388-1.277,0.345-1.78
		c0.466-0.321,0.875-0.86,0.61-1.384c-1.056-2.087,0.107-3.854,0.796-5.634c0.793-2.05,0.595-3.96-0.381-5.839
		c-0.49-0.953-0.522-1.735,0.653-2.029c4.968-1.237,5.567-5.193,5.916-9.334c0.125-1.463-0.41-2.795-0.717-4.179
		c-0.212-0.978-0.189-1.627,0.872-2.334c2.671-1.78,4.132-7.671,2.854-10.619c-0.154-0.352-0.408-0.772-0.731-0.919
		c-3.594-1.646-6.869-4.134-11.058-4.236c-2.828-0.072-5.545-0.939-7.303-3.045c-1.732-2.077-4.233-3.464-5.385-6.033
		c-0.408-0.916-1.158-1.524-2.098-1.791c-2.26-0.648-3.928-2.627-6.722-2.285c-2.009,0.239-2.913-2.962-1.622-5.104
		c1.004-1.671,0.832-2.029-1.132-2.159c-1.285-0.086-2.188-0.079-1.708-1.988c0.33-1.299-0.463-2.788-0.352-4.295
		c0.058-0.816-0.171-1.565,0.195-2.471c0.578-1.432-1.585-4.072-3.644-4.64c-1.16-0.314-2.332-0.718-3.574-0.451
		c-0.131,0.027-0.343,0.137-0.379,0.093c-1.227-1.527-3.225-0.725-4.703-1.579c-1.28-0.744-2.815-1.069-2.521-3.129
		c0.075-0.53-0.333-1.354-1.181-1.449c-1.08-0.116-1.125,1.025-1.811,1.517c-1.754-1.199-3.537-2.432-5.333-3.639
		c-1.869-1.254-4.061-0.782-5.069,1.199c-0.405,0.797-0.883,0.968-1.715,1.005c-2.192,0.086-4.423,0.243-4.538,3.283
		c-0.014,0.396-0.235,0.735-0.753,0.817c-0.673,0.102-0.79-0.39-0.979-0.804c-1.205-2.597,0.079-5.05,0.531-7.52
		c0.502-2.744,2.388-4.817,3.852-7.076c0.818-1.257,1.746-0.711,2.5,0.112c1.043,1.142,2.016,1.477,2.752-0.188
		c0.405-0.908,0.957-0.522,1.495-0.39c0.617,0.154,1.099,0.417,1.027,1.237c-0.101,1.076-0.072,2.169-0.107,3.252
		c-0.019,0.544-0.048,1.084-0.079,1.627c-0.033,0.646,0.174,1.592,0.745,1.421c2.048-0.618,2.749,2.768,4.847,1.514
		c0.965-0.574,0.734-2.904-0.483-3.444c-1.027-0.457-0.848-0.901-0.625-1.69c0.287-1.042,0.359-2.139,0.596-3.194
		c0.483-2.153,1.324-4.053,3.379-5.259c1.693-0.987,3.278-2.156,4.896-3.27c0.382-0.263,0.927-0.581,1.004-0.946
		c0.688-3.492,4.433-4.292,6.064-6.963c0.502-0.824,1.754-0.592,2.681-0.599c1.25-0.01,2.424-0.622,2.545-1.63
		c0.327-2.661,2.906-1.76,4.104-2.935c0.155-0.15,0.398-0.099,0.449,0.137c0.46,2.398,1.912,1.024,2.927,0.684
		c2.152-0.731,4.269-1.579,6.36-2.478c0.774-0.338,1.611-0.769,1.198-1.984c-0.313-0.927,0.121-0.934,1.03-0.848
		c1.606,0.15,2.679,1.521,4.508,1.356c3.265-0.287,4.264-1.436,3.207-4.644c-0.101-0.297-0.492-0.561-0.053-0.816
		c1.083-0.625,0.572-1.78,0.904-2.528c0.669-1.527,0.609-2.214-1.083-2.515c-0.234-0.045-0.375-0.267-0.349-0.615
		c0.164-2.672,0.271-5.351,0.444-8.022c0.022-0.297,0.302-0.803,0.509-0.833c1.748-0.223,2.713-1.839,4.233-2.334
		c1.05-0.342,1.954-0.902,2.938-1.322c1.41-0.598,1.732-1.4,0.605-2.593c-0.555-0.592-1.003-1.069-0.255-2.03
		c0.808-1.035-0.412-1.858-0.953-2.617c-0.61-0.86-0.659-1.599,0.316-1.909c1.67-0.53,3.001-1.903,4.863-1.917
		c0.463-0.461,0.8-0.52,0.839,0.276c0.022,0.465,0.022,0.927,0.032,1.391c0.046,0.048,0.086,0.116,0.144,0.144
		c2.091,0.878,2.684,1.753,3.196,3.974c0.226,0.991,0.193,1.281-0.883,1.634c-1.481,0.481-2.307,1.708-2.457,3.393
		c-0.13,1.503-0.678,2.842-0.258,4.526c0.526,2.126,2.296,2.535,3.618,3.267c1.135,0.625,2.472-0.488,3.477-1.517
		c1.674-1.719,3.024-3.919,5.656-4.388c1.973-0.348,3.465-1.827,5.265-2.33c1.83-0.509,3.825-0.502,5.578-1.394
		c1.151-0.588,2.778-0.465,3.283-2.061c0.646-2.05,1.367-4.145,0.861-6.297c-0.215-0.926-0.798-1.537,0.702-1.678
		c0.563-0.051,1.112-0.58,1.069-1.298c-0.039-0.632-0.603-0.998-1.083-1.087c-1.866-0.352-3.542-0.987-4.732-2.563
		c-0.032-0.048-0.118-0.068-0.183-0.075c-4.208-0.659-8.458-1.254-12.407,0.861c-1.57,0.841-2.496,0.718-3.511-0.643
		c-0.818-1.1-2.371-1.223-3.285-2.299c-0.41-0.479-1.353-0.312-1.705,0.085c-1.735,1.947-4.806,2.159-6.148,5.282
		c-0.347-2.405-1.243-2.159-2.474-1.227c-0.984,0.745-1.904,1.51-2.593,2.535c-0.163,0.239-0.094,0.755-0.619,0.567
		c-0.401-0.147-0.422-0.479-0.265-0.827c0.273-0.604,0.782-1.302-0.089-1.749c-0.825-0.427-1.382,0.342-1.931,0.786
		c-0.528,0.43-0.914,1.64-1.488,0.033c-0.065-0.181-0.502-0.406-0.682-0.348c-2.599,0.881-5.554-0.168-7.988,1.318
		c-2.96,1.808-6.769,1.742-9.358,4.332c-0.502,0.503-0.94-0.007-1.16-0.314c-0.49-0.696,0.332-0.751,0.642-0.926
		c6.155-3.457,12.609-6.235,19.427-8.076c24.147-6.529,47.175-3.759,69.109,8.319c2.41,1.329,3.702,3.953,6.324,4.93
		c0.642,0.376,1.521,0.257,2.152,0.916c-0.88,0.533-1.481-0.342-2.185-0.153c-0.362,0.32-0.682,0.573-1.237,0.27
		c-2.228-1.213-4.811-1.09-7.175-1.899c-2.482-0.854-5.405,1.339-5.552,3.933c-0.121,2.114-0.2,4.168-1.922,5.732
		c-0.211,0.191-0.414,0.708-0.306,0.889c1.047,1.794,1.748,4.288,3.533,4.998c1.873,0.742,1.536,2.252,2.257,3.328
		c0.492,0.729-0.81,0.54-1.112,0.998c-1.334,2.029-2.467,1.551-3.765-0.141c-1.108-1.445-2.87-2.271-3.339-4.38
		c-0.202-0.912-1.608-1.756-2.645-2.221c-1.054-0.468-2.188-0.181-2.284,1.37c-0.114,1.862-0.736,3.311-2.772,3.823
		c-0.841,0.212-1.158,1.001-0.9,1.79c0.297,0.919,0.398,1.764,0.222,2.733c-0.183,1.025,0.506,1.388,1.514,1.315
		c1.285-0.092,2.45-0.639,3.892-1.097c-0.434,1.47-1.292,2.925,0.943,3.198c0.058,0.007,0.159,0.092,0.152,0.112
		c-0.922,2.836,1.517,2.863,3.041,3.659c0.897,0.469,0.982,1.367,0.754,2.105c-0.287,0.922-1.116,0.218-1.704,0.256
		c-1.594,0.096-3.14-1.158-4.824,0.229c-0.945,0.772-1.363,1.422-1.091,2.505c0.377,1.482,0.423,2.969-0.096,4.397
		c-0.538,1.476,0.691,2.374,1.008,3.563c0.39,1.473,1.302,1.961,2.764,1.476c0.173-0.058,0.535,0.154,0.665,0.342
		c0.251,0.358-0.068,0.604-0.32,0.823c-0.822,0.711-1.599,1.479-2.475,2.115c-1.438,1.049-2.241,2.367-2.561,4.161
		c-0.395,2.211-2.525,2.85-4.168,3.789c-0.992,0.57-1.703,1.199-2.219,2.211c-1.51,2.948-3.401,5.688-4.657,8.78
		c-0.375,0.93-0.584,1.814-0.167,2.74c1.151,2.573,1.247,5.063-0.407,7.489c-0.888,1.299-0.319,2.519-0.164,3.95
		c0.34,3.058,2.381,4.786,3.81,6.983c2.42,3.714,6.218,5.904,9.819,8.271c0.248,0.164,0.69,0.236,0.962,0.134
		c3.601-1.315,7.4-0.622,11.083-1.094c1.572-0.205,2.772-1.343,4.445-1.264c0.985,0.041,1.523,0.235,1.71,1.175
		c0.265,1.35,1.047,1.65,2.364,1.49c2.371-0.301,3.432,1.188,2.173,3.263c-1.5,2.474-1.481,4.735-0.118,7.198
		c2.144,3.885,1.205,7.913,0.042,11.777c-0.444,1.486-1.782,2.785-2.783,4.073c-1.399,1.804-2.475,3.484-1.718,5.832
		c0.078,0.249,0.114,0.567,0.025,0.8c-1.927,5.009-2.199,10.643-5.728,15.036c-0.083,0.109-0.179,0.216-0.227,0.339
		c-0.32,0.819-1.527,1.571-0.673,2.497c0.702,0.752,1.724,0.079,2.646-0.055c4.652-0.656,8.552-2.818,12.177-5.651
		c1.02-0.793,2.096-1.521,2.87-2.556c1.532-2.046,4.312-2.515,5.757-4.653c0.414-0.615,0.976-1.135,1.344-1.763
		c1.311-2.252,3.639-4.415,6.34-5.74C277.183,393.151,276.651,393.899,275.989,394.552z M174.335,270.609
		c0.079-0.687,0.248-1.306,1.092-1.407c0.425-0.055,0.559,0.222,0.676,0.566c-0.386,0.564-0.702,1.227-1.214,1.668
		C174.693,271.597,174.289,271.07,174.335,270.609z M178.131,272.762c0.458,1.025,1.765,1.192,2.273,2.293
		c-0.7,0.386-1.377,0.751-2.524,1.373c1.399-2.354-0.743-2.836-1.249-4.083C177.675,271.781,177.685,271.774,178.131,272.762z
		 M177.912,268.553c1.197-0.803,1.603-2.193,3.341-1.831C180.322,267.654,179.913,268.983,177.912,268.553z M281.146,388.433
		c-0.219,0.13-0.456,0.232-0.682,0.342c-0.082-0.068-0.169-0.141-0.255-0.212c0.183-0.235,0.355-0.488,0.552-0.711
		c0.456-0.509,0.485-1.438,1.411-1.469c0.139-0.004,0.429,0.219,0.415,0.294C282.448,387.53,281.835,388.022,281.146,388.433z
		 M282.904,315.477c-1.292-0.352-2.385-0.181-3.666,0.26c-1.237,0.427-3.06-0.588-4.541-1.179c-2.489-0.99-3.278-0.854-4.918,1.384
		c-0.347,0.475-0.643,0.399-0.993,0.123c-2.204-1.746-5.022-1.879-7.501-2.904c-0.642-0.522-0.226-1.158-0.046-1.838
		c0.172,0.314,0.349,0.632,0.522,0.946c1.285,0.827,1.895-0.246,2.093-1.056c0.542-2.252,1.502-4.346,2.195-6.662
		c1.402,1.151,2.525,2.535,3.78,3.803c1.358,1.37,2.513,3.229,4.773,3.427c0.962,0.089,1.995,0.625,2.26-1.083
		c0.15-0.968,1.396-0.205,2.055-0.636c0.492-0.324,0.552,0.099,0.747,0.509c0.649,1.354,1.635,2.115,3.203,1.148
		C283.241,312.993,282.976,314.127,282.904,315.477z M285.661,383.103c-0.268,0.475-0.512,1.192-1.29,0.373
		c-0.384-0.4-1.206-0.172-0.89-1.322c1.722-6.287,5.144-11.645,8.859-16.861c0.198-0.28,0.408-0.544,1.073-0.485
		C291.499,371.295,288.909,377.342,285.661,383.103z M295.199,348.444c-0.351-1.425,0.786-1.49,1.519-2.159
		C296.953,347.724,295.91,347.86,295.199,348.444z"/>
	<path fill="#020000" d="M93.591,66.297l14.254,77.938l14.257-77.938h55.125l-37.064,133.062H75.527L38.467,66.297H93.591z"/>
	<path fill="#020000" d="M241.867,199.358h-49.414V66.297h49.414V199.358z"/>
	<path fill="#020000" d="M315.057,157.542c0-9.505-51.322-9.505-51.322-51.321c0-21.863,20.912-42.767,54.181-42.767
		c34.208,0,51.318,20.903,51.318,20.903l-18.057,28.516c0,0-11.406-10.452-24.708-10.452c-4.756,0-7.604,2.839-7.604,5.695
		c0,9.502,51.314,9.502,51.314,51.325c0,21.856-20.901,42.766-54.166,42.766c-41.823,0-58.93-22.81-58.93-22.81l18.054-28.512
		c0,0,13.308,12.351,32.321,12.351C312.209,163.238,315.057,160.392,315.057,157.542z"/>
	<path fill="#020000" d="M436.726,199.358h-49.424V66.297h49.424V199.358z"/>
	<polygon fill="#231F20" points="524.362,0 564.275,0 537.667,39.92 507.252,39.92 	"/>
	<path fill="#020000" d="M665.047,140.432v58.927h-49.433V66.297h55.131l32.315,58.927V66.297h49.418v133.062h-55.131
		L665.047,140.432z"/>
	<path opacity="0.9" fill="#EC1C24" d="M346.23,238.616l20.542,112.35l20.557-112.35h79.463l-53.437,191.807h-93.159
		l-53.426-191.807H346.23z"/>
	<path opacity="0.8" fill="#4BC6E8" d="M508.673,375.624h82.198v54.799H437.429V238.616h147.969v54.799h-76.725v13.705h71.237
		v54.799h-71.237V375.624z"/>
	<path opacity="0.8" fill="#B0D135" d="M624.928,345.485v84.938h-71.244V238.616h79.458l46.59,84.938v-84.938h71.23v191.807h-79.458
		L624.928,345.485z"/>
	<g id="atIQsy.tif_4_">
		<g>
			<path d="M521.649,54.673c6.164-0.574,12.396-0.393,18.532,0.543c14.609,2.234,27.483,8.244,38.499,18.047
				c12.778,11.374,20.854,25.502,24.094,42.329c0.595,3.106,0.916,6.263,1.367,9.396c0,3.191,0,6.372,0,9.56
				c-0.219,1.565-0.444,3.137-0.643,4.708c-2.241,17.179-9.532,31.898-21.819,44.065c-11.172,11.066-24.572,17.985-40.118,20.599
				c-3.464,0.584-6.983,0.864-10.469,1.291c-1.599,0-3.19,0-4.783,0c-0.833-0.109-1.681-0.259-2.515-0.311
				c-13.98-0.946-26.8-5.323-38.212-13.448c-16.864-12.009-27.313-28.238-31.009-48.673c-0.629-3.509-0.889-7.083-1.313-10.619
				c0-1.817,0-3.646,0-5.466c0.205-1.791,0.396-3.581,0.615-5.368c2.72-22.243,13.229-39.91,31.297-53.088
				c6.505-4.75,13.673-8.231,21.401-10.599C511.488,56.136,516.545,55.142,521.649,54.673z M528.776,66.235
				c-35.089-0.014-63.488,28.324-63.543,63.403c-0.062,34.966,28.393,63.502,63.413,63.598c35.063,0.092,63.604-28.44,63.591-63.55
				C592.224,94.573,563.893,66.249,528.776,66.235z"/>
			<path fill-rule="evenodd" clip-rule="evenodd" fill="#FFFFFF" d="M528.776,66.235c35.116,0.014,63.447,28.338,63.461,63.451
				c0.014,35.11-28.528,63.642-63.591,63.55c-35.021-0.096-63.475-28.631-63.413-63.598
				C465.288,94.56,493.688,66.222,528.776,66.235z M516.128,74.371c-14.541,3.584-25.837,11.367-34.357,23.5
				c1.489,0.939,2.884,1.722,4.127,2.682c0.451,0.352,0.533,1.165,0.786,1.763c-0.615-0.014-1.332,0.178-1.817-0.082
				c-1.422-0.759-2.761-1.698-4.23-2.627c-7.756,12.86-10.243,26.455-7.53,41.136c1.675-0.375,3.157-0.816,4.668-0.994
				c0.614-0.075,1.298,0.427,1.947,0.673c-0.506,0.43-0.937,1.069-1.518,1.247c-1.489,0.478-3.041,0.741-4.674,1.124
				c3.704,14.534,11.645,25.813,23.958,34.269c1.072-1.674,2.016-3.287,3.115-4.783c0.301-0.41,1.066-0.479,1.62-0.704
				c0.014,0.595,0.246,1.312-0.007,1.767c-0.882,1.626-1.935,3.153-3,4.845c12.901,7.534,26.452,9.922,41.068,7.083
				c-0.369-1.698-0.772-3.235-0.978-4.797c-0.082-0.543,0.335-1.158,0.533-1.736c0.472,0.444,1.189,0.81,1.359,1.356
				c0.485,1.486,0.738,3.044,1.107,4.712c14.37-3.758,25.502-11.695,33.825-23.872c-1.306-0.851-2.597-1.575-3.745-2.487
				c-0.396-0.311-0.431-1.08-0.622-1.63c0.554-0.01,1.217-0.215,1.654,0.01c1.291,0.669,2.494,1.513,3.84,2.347
				c7.489-12.693,9.765-26.097,7.147-40.573c-1.551,0.335-2.855,0.714-4.195,0.871c-0.465,0.051-0.998-0.437-1.496-0.68
				c0.361-0.424,0.648-1.077,1.1-1.227c1.278-0.427,2.624-0.646,4.148-0.995c-3.595-14.281-11.398-25.443-23.425-33.883
				c-0.984,1.534-1.771,2.918-2.727,4.179c-0.314,0.4-1.066,0.485-1.612,0.704c-0.021-0.602-0.253-1.315-0.008-1.78
				c0.752-1.435,1.688-2.781,2.598-4.24c-12.676-7.681-26.11-10.086-40.625-7.575c0.369,1.719,0.766,3.191,0.964,4.702
				c0.068,0.529-0.362,1.131-0.561,1.701c-0.472-0.454-1.182-0.816-1.359-1.356C516.736,77.579,516.504,76.059,516.128,74.371z"/>
			<path fill-rule="evenodd" clip-rule="evenodd" d="M516.128,74.371c0.376,1.688,0.608,3.208,1.08,4.65
				c0.178,0.54,0.888,0.902,1.359,1.356c0.198-0.57,0.629-1.172,0.561-1.701c-0.198-1.511-0.595-2.983-0.964-4.702
				c14.515-2.511,27.949-0.106,40.625,7.575c-0.909,1.459-1.846,2.805-2.598,4.24c-0.245,0.465-0.014,1.179,0.008,1.78
				c0.546-0.219,1.298-0.304,1.612-0.704c0.956-1.261,1.742-2.645,2.727-4.179c12.026,8.439,19.83,19.602,23.425,33.883
				c-1.524,0.349-2.87,0.567-4.148,0.995c-0.451,0.15-0.738,0.803-1.1,1.227c0.498,0.243,1.031,0.731,1.496,0.68
				c1.34-0.157,2.645-0.536,4.195-0.871c2.617,14.476,0.342,27.88-7.147,40.573c-1.346-0.834-2.549-1.678-3.84-2.347
				c-0.438-0.226-1.101-0.021-1.654-0.01c0.191,0.55,0.226,1.319,0.622,1.63c1.148,0.912,2.439,1.636,3.745,2.487
				c-8.323,12.177-19.455,20.114-33.825,23.872c-0.369-1.667-0.622-3.226-1.107-4.712c-0.17-0.546-0.888-0.912-1.359-1.356
				c-0.198,0.578-0.615,1.192-0.533,1.736c0.205,1.562,0.608,3.099,0.978,4.797c-14.616,2.839-28.167,0.451-41.068-7.083
				c1.065-1.691,2.118-3.219,3-4.845c0.253-0.455,0.021-1.172,0.007-1.767c-0.554,0.226-1.319,0.294-1.62,0.704
				c-1.1,1.496-2.043,3.109-3.115,4.783c-12.313-8.456-20.254-19.735-23.958-34.269c1.633-0.383,3.185-0.646,4.674-1.124
				c0.581-0.178,1.012-0.817,1.518-1.247c-0.649-0.246-1.333-0.749-1.947-0.673c-1.511,0.178-2.993,0.619-4.668,0.994
				c-2.713-14.681-0.226-28.276,7.53-41.136c1.47,0.929,2.809,1.869,4.23,2.627c0.485,0.26,1.202,0.068,1.817,0.082
				c-0.253-0.598-0.335-1.411-0.786-1.763c-1.243-0.96-2.638-1.743-4.127-2.682C490.291,85.738,501.587,77.955,516.128,74.371z
				 M561.174,89.137c-0.068-0.079-0.144-0.161-0.212-0.236c-0.178,0.133-0.349,0.26-0.506,0.407
				c-12.368,11.586-24.736,23.175-37.085,34.771c-0.45,0.42-0.833,0.937-1.154,1.459c-8.672,14.405-17.343,28.827-26.015,43.238
				c-0.226,0.369-0.424,0.755-0.636,1.134c0.554-0.055,0.813-0.263,1.066-0.495c12.231-11.48,24.47-22.953,36.688-34.447
				c0.526-0.496,0.957-1.124,1.333-1.75c5.487-9.099,10.961-18.204,16.435-27.309C554.456,100.323,557.818,94.73,561.174,89.137z
				 M524.608,146.014c0.027,0.195,0.062,0.396,0.096,0.602c0.697,0.123,1.4,0.369,2.098,0.341c1.544-0.064,2.234,0.708,2.822,2.067
				c2.132,5.019,4.4,9.97,6.628,14.944c0.232,0.52,0.499,1.018,0.759,1.531c0.205-0.041,0.41-0.085,0.615-0.133
				c0-5.9,0.062-11.808-0.034-17.705c-0.027-1.947,0.171-3.543,2.125-4.489c0.588-0.291,1.127-0.824,1.489-1.374
				c0.807-1.223,1.695-1.1,2.891-0.598c2.528,1.059,5.111,1.961,7.674,2.921c-1.571-2.078-3.218-3.963-5.057-5.634
				c-1.407-1.268-2.118-2.46-1.195-4.342c0.382-0.783,0.519-1.763,0.519-2.651c0-1.039,0.465-1.466,1.347-1.849
				c5.043-2.207,10.059-4.469,15.081-6.72c0.69-0.301,1.359-0.639,2.036-0.96c-0.041-0.211-0.075-0.417-0.116-0.625
				c-6.286,0-12.587,0.01-18.873-0.007c-2.2,0-2.809,0.84-2.037,2.949c4.025,11.015-4.845,22.27-16.536,21.057
				C526.193,145.259,525.388,145.771,524.608,146.014z M506.644,114.055c-0.075,0.109-0.157,0.222-0.232,0.328
				c2.057,2.023,4.093,4.066,6.198,6.041c0.683,0.652,0.771,1.188,0.369,2.06c-0.547,1.179-1.032,2.429-1.217,3.7
				c-0.164,1.151-0.766,1.623-1.701,2.046c-5.412,2.487-10.811,5.012-16.216,7.534c-0.362,0.171-0.697,0.407-1.428,0.834
				c6.84,0,13.202,0.01,19.563-0.01c1.271-0.01,2.063-1.254,1.646-2.692c-2.856-9.758,4.804-20.616,16.394-19.871
				c0.813,0.055,1.66-0.482,2.494-0.745c0.034-0.215,0.068-0.434,0.103-0.649c-2.187,0.386-2.453-1.216-3.034-2.474
				c-2.166-4.626-4.312-9.266-6.472-13.896c-0.416-0.892-0.86-1.776-1.298-2.665c-0.096,0.031-0.191,0.054-0.28,0.079
				c0,0.546,0,1.097,0,1.64c0,5.576-0.034,11.146,0.021,16.718c0.007,1.244-0.157,2.111-1.476,2.665
				c-1.012,0.427-1.961,1.175-2.754,1.961c-0.793,0.769-1.477,0.769-2.412,0.414C512.172,116.026,509.397,115.053,506.644,114.055z"
				/>
			<path fill-rule="evenodd" clip-rule="evenodd" fill="#FFFFFF" d="M561.174,89.137c-3.355,5.593-6.718,11.186-10.086,16.772
				c-5.474,9.105-10.947,18.21-16.435,27.309c-0.376,0.625-0.807,1.254-1.333,1.75c-12.218,11.494-24.456,22.967-36.688,34.447
				c-0.253,0.232-0.513,0.44-1.066,0.495c0.212-0.379,0.41-0.765,0.636-1.134c8.672-14.411,17.343-28.833,26.015-43.238
				c0.321-0.522,0.704-1.039,1.154-1.459c12.349-11.596,24.717-23.185,37.085-34.771c0.157-0.147,0.328-0.273,0.506-0.407
				C561.03,88.977,561.105,89.059,561.174,89.137z M533.628,129.741c0.007-2.706-2.166-4.896-4.838-4.872
				c-2.699,0.021-4.893,2.234-4.852,4.886c0.041,2.61,2.166,4.739,4.776,4.79C531.394,134.596,533.628,132.413,533.628,129.741z"/>
			<path fill-rule="evenodd" clip-rule="evenodd" fill="#FFFFFF" d="M524.608,146.014c0.779-0.243,1.585-0.755,2.33-0.676
				c11.691,1.213,20.562-10.042,16.536-21.057c-0.771-2.108-0.163-2.949,2.037-2.949c6.286,0.017,12.587,0.007,18.873,0.007
				c0.041,0.208,0.075,0.414,0.116,0.625c-0.677,0.321-1.346,0.66-2.036,0.96c-5.022,2.251-10.038,4.513-15.081,6.72
				c-0.882,0.383-1.347,0.81-1.347,1.849c0,0.888-0.137,1.869-0.519,2.651c-0.923,1.882-0.212,3.075,1.195,4.342
				c1.839,1.671,3.485,3.557,5.057,5.634c-2.563-0.96-5.146-1.862-7.674-2.921c-1.195-0.502-2.084-0.625-2.891,0.598
				c-0.362,0.55-0.901,1.083-1.489,1.374c-1.954,0.946-2.152,2.542-2.125,4.489c0.096,5.897,0.034,11.805,0.034,17.705
				c-0.205,0.048-0.41,0.092-0.615,0.133c-0.26-0.513-0.526-1.011-0.759-1.531c-2.228-4.975-4.496-9.925-6.628-14.944
				c-0.588-1.36-1.278-2.132-2.822-2.067c-0.697,0.027-1.4-0.218-2.098-0.341C524.67,146.411,524.636,146.209,524.608,146.014z"/>
			<path fill-rule="evenodd" clip-rule="evenodd" fill="#FFFFFF" d="M506.644,114.055c2.754,0.998,5.528,1.972,8.269,3.017
				c0.936,0.355,1.619,0.355,2.412-0.414c0.793-0.786,1.742-1.534,2.754-1.961c1.318-0.554,1.482-1.421,1.476-2.665
				c-0.055-5.572-0.021-11.142-0.021-16.718c0-0.543,0-1.093,0-1.64c0.089-0.024,0.185-0.048,0.28-0.079
				c0.438,0.888,0.882,1.773,1.298,2.665c2.16,4.63,4.306,9.27,6.472,13.896c0.581,1.258,0.848,2.86,3.034,2.474
				c-0.034,0.216-0.068,0.434-0.103,0.649c-0.834,0.263-1.681,0.8-2.494,0.745c-11.59-0.745-19.25,10.113-16.394,19.871
				c0.417,1.438-0.375,2.682-1.646,2.692c-6.361,0.021-12.724,0.01-19.563,0.01c0.73-0.427,1.065-0.663,1.428-0.834
				c5.405-2.521,10.804-5.046,16.216-7.534c0.936-0.423,1.537-0.895,1.701-2.046c0.185-1.271,0.67-2.521,1.217-3.7
				c0.402-0.872,0.313-1.408-0.369-2.06c-2.105-1.975-4.142-4.018-6.198-6.041C506.486,114.277,506.568,114.164,506.644,114.055z"/>
			<path fill-rule="evenodd" clip-rule="evenodd" d="M533.628,129.741c0,2.672-2.234,4.855-4.913,4.804
				c-2.61-0.051-4.735-2.18-4.776-4.79c-0.041-2.651,2.152-4.865,4.852-4.886C531.462,124.845,533.635,127.035,533.628,129.741z"/>
		</g>
	</g>
</g>
</svg>
