<?xml version="1.0" encoding="utf-8"?>
<!-- Generator: Adobe Illustrator 16.0.0, SVG Export Plug-In . SVG Version: 6.00 Build 0)  -->
<!DOCTYPE svg PUBLIC "-//W3C//DTD SVG 1.1//EN" "http://www.w3.org/Graphics/SVG/1.1/DTD/svg11.dtd">
<svg version="1.1" id="Capa_1" xmlns="http://www.w3.org/2000/svg" xmlns:xlink="http://www.w3.org/1999/xlink" x="0px" y="0px"
	 width="150px" height="150px" viewBox="-25 -25 150 150" enable-background="new -25 -25 150 150" xml:space="preserve">
<g>
	<rect x="-25" y="-24.998" fill="#EC1C24" enable-background="new    " width="150" height="149.996"/>
	<g id="EqJ2eY.tif_1_" opacity="0.9">
		<g>
			<path fill="#020000" stroke="#EA2127" stroke-width="0.6887" stroke-miterlimit="10" d="M94.024,23.243
				c0.347,0.411-1.608,1.444-2.35,2.015C77.721,35.975,63.208,47.55,49.188,58.337C34.457,46.874,19.784,35.348,5.363,23.574
				C35.04,23.59,64.498,23.375,94.024,23.243z"/>
			<path fill="#020000" stroke="#EA2127" stroke-width="0.6887" stroke-miterlimit="10" d="M97.716,23.571
				c0.396,19.03,0.056,38.792,0.171,58.103c-0.953,0.075-1.668-0.842-2.354-1.343c-11.924-8.729-24.629-17.734-36.601-26.539
				C71.716,43.577,84.877,33.736,97.716,23.571z"/>
			<path fill="#020000" stroke="#EA2127" stroke-width="0.6887" stroke-miterlimit="10" d="M1.837,24.08
				c12.739,9.759,25.084,19.914,37.779,29.717C27.124,63.024,14.279,72.794,1.837,81.51C1.837,62.363,1.837,43.216,1.837,24.08z"/>
			<path fill="#020000" stroke="#EA2127" stroke-width="0.6887" stroke-miterlimit="10" d="M56.913,55.312
				c13.238,9.6,27.208,19.37,39.795,29.052c-30.743-0.482-61.586-0.875-92.521-1.174c-0.125-0.438,0.429-0.646,0.67-0.837
				c11.577-9.207,24.819-17.768,36.606-26.875c1.381,0.704,2.33,1.796,3.694,2.858c0.949,0.745,2.779,2.674,3.859,2.688
				c0.928,0.008,2.76-1.655,3.861-2.52C54.508,57.236,55.566,56.069,56.913,55.312z"/>
		</g>
	</g>
</g>
</svg>
