<?xml version="1.0" encoding="utf-8"?>
<!-- Generator: Adobe Illustrator 16.0.0, SVG Export Plug-In . SVG Version: 6.00 Build 0)  -->
<!DOCTYPE svg PUBLIC "-//W3C//DTD SVG 1.1//EN" "http://www.w3.org/Graphics/SVG/1.1/DTD/svg11.dtd">
<svg version="1.1" id="Capa_1" xmlns="http://www.w3.org/2000/svg" xmlns:xlink="http://www.w3.org/1999/xlink" x="0px" y="0px"
	 width="100px" height="100px" viewBox="-15 -15 100 100" enable-background="new -15 -15 100 100" xml:space="preserve">
<g>
	<rect x="-15" y="-14.999" opacity="0.9" fill="#EC1C24" enable-background="new    " width="100" height="99.998"/>
	<g id="EqJ2eY.tif_1_" opacity="0.9">
		<g>
			<path fill="#020000" stroke="#EA2127" stroke-width="0.6887" stroke-miterlimit="10" d="M64.349,17.162
				c0.232,0.274-1.071,0.963-1.566,1.343c-9.303,7.145-18.978,14.861-28.324,22.053c-9.821-7.642-19.603-15.326-29.217-23.175
				C25.027,17.393,44.665,17.25,64.349,17.162z"/>
			<path fill="#020000" stroke="#EA2127" stroke-width="0.6887" stroke-miterlimit="10" d="M66.811,17.381
				c0.263,12.687,0.036,25.861,0.114,38.735c-0.636,0.05-1.113-0.561-1.569-0.896c-7.95-5.819-16.42-11.822-24.401-17.692
				C49.477,30.718,58.251,24.157,66.811,17.381z"/>
			<path fill="#020000" stroke="#EA2127" stroke-width="0.6887" stroke-miterlimit="10" d="M2.891,17.72
				c8.493,6.506,16.723,13.276,25.186,19.811c-8.328,6.152-16.891,12.665-25.186,18.476C2.891,43.242,2.891,30.477,2.891,17.72z"/>
			<path fill="#020000" stroke="#EA2127" stroke-width="0.6887" stroke-miterlimit="10" d="M39.609,38.541
				c8.825,6.4,18.138,12.913,26.529,19.368c-20.495-0.322-41.057-0.584-61.68-0.783c-0.083-0.291,0.286-0.43,0.447-0.558
				c7.718-6.138,16.546-11.845,24.404-17.916c0.921,0.469,1.554,1.197,2.463,1.905c0.633,0.497,1.853,1.783,2.573,1.792
				c0.619,0.005,1.84-1.104,2.574-1.68C38.005,39.824,38.711,39.046,39.609,38.541z"/>
		</g>
	</g>
</g>
</svg>
