<?xml version="1.0" encoding="utf-8"?>
<!-- Generator: Adobe Illustrator 16.0.0, SVG Export Plug-In . SVG Version: 6.00 Build 0)  -->
<!DOCTYPE svg PUBLIC "-//W3C//DTD SVG 1.1//EN" "http://www.w3.org/Graphics/SVG/1.1/DTD/svg11.dtd">
<svg version="1.1" id="Capa_1" xmlns="http://www.w3.org/2000/svg" xmlns:xlink="http://www.w3.org/1999/xlink" x="0px" y="0px"
	 width="80px" height="80px" viewBox="0 0 80 80" enable-background="new 0 0 80 80" xml:space="preserve">
<g>
	<g id="Wkxmsz.tif_3_" opacity="0.8">
		<g>
			<path fill-rule="evenodd" clip-rule="evenodd" fill="#4BC6E8" d="M73.671,25.694c-0.02,2.612-0.746,5.128-2.865,7.088
				c-0.3,0.278-0.295,0.504-0.164,0.862c0.572,1.574,0.282,3.015-0.867,4.222c-1.43,1.494-2.894,2.959-4.387,4.392
				c-1.176,1.128-2.599,1.476-4.144,0.909c-0.51-0.188-0.762-0.058-1.093,0.274c-5.98,5.993-11.955,11.991-17.973,17.948
				c-0.741,0.734-1.648,1.383-2.593,1.822c-4.83,2.247-9.843,4.029-14.928,5.594c-3.262,1.004-6.591,1.79-9.899,2.644
				c-0.569,0.147-1.175,0.186-1.769,0.199c-1.037,0.026-1.383-0.271-1.291-1.304c0.112-1.272,0.275-2.558,0.585-3.795
				c1.947-7.804,4.537-15.391,7.818-22.732c0.435-0.972,1.1-1.899,1.851-2.658c5.92-5.984,11.885-11.928,17.847-17.869
				c0.39-0.387,0.537-0.666,0.324-1.262c-0.512-1.446-0.264-2.848,0.811-3.977c1.491-1.568,3.021-3.102,4.592-4.591
				c1.192-1.131,2.642-1.337,4.175-0.784c0.357,0.128,0.578,0.153,0.861-0.151c1.887-2.022,4.295-2.81,6.99-2.837
				C66.194,9.605,73.606,16.89,73.671,25.694z M62.869,39.904c0.505-0.271,1.076-0.466,1.502-0.831
				c0.773-0.667,1.471-1.419,2.182-2.155c0.966-1.003,0.972-2.231-0.021-3.227c-5.626-5.641-11.259-11.276-16.897-16.903
				c-0.986-0.985-2.226-0.981-3.232-0.02c-0.739,0.706-1.462,1.429-2.17,2.169c-0.932,0.974-0.92,2.187,0.016,3.179
				c0.358,0.382,0.737,0.742,1.106,1.113c5.214,5.212,10.43,10.422,15.639,15.639C61.498,39.376,62.033,39.777,62.869,39.904z
				 M33.481,57.207c-2.324,0.761-4.128-0.123-5.668-1.664c-1.552-1.555-2.468-3.368-1.692-5.683c-1.688-0.073-3.245-0.397-4.4-1.767
				c-0.094,0.184-0.174,0.306-0.222,0.437c-1.439,3.966-2.881,7.933-4.295,11.909c-0.068,0.19,0.06,0.546,0.219,0.707
				c1.56,1.597,3.155,3.163,4.719,4.757c0.292,0.299,0.538,0.354,0.93,0.214c3.018-1.07,6.048-2.103,9.062-3.181
				c1.039-0.371,2.042-0.839,3.144-1.293C33.885,60.441,33.544,58.916,33.481,57.207z"/>
		</g>
	</g>
	<g id="Wkxmsz.tif_2_" opacity="0.8">
		<g>
			<path fill-rule="evenodd" clip-rule="evenodd" fill="#000001" d="M68.314,24.354c-0.02,2.612-0.745,5.131-2.864,7.091
				c-0.301,0.277-0.295,0.504-0.165,0.859c0.572,1.575,0.282,3.018-0.867,4.222c-1.429,1.496-2.894,2.96-4.387,4.393
				c-1.176,1.13-2.598,1.477-4.144,0.907c-0.51-0.188-0.762-0.058-1.092,0.274c-5.98,5.993-11.956,11.992-17.973,17.949
				c-0.742,0.734-1.649,1.382-2.593,1.821c-4.83,2.25-9.843,4.031-14.928,5.595c-3.262,1.005-6.591,1.79-9.9,2.644
				c-0.568,0.148-1.176,0.186-1.768,0.2c-1.038,0.027-1.384-0.271-1.292-1.303c0.113-1.274,0.276-2.559,0.585-3.796
				c1.948-7.803,4.538-15.393,7.819-22.734c0.435-0.969,1.1-1.898,1.851-2.656c5.92-5.985,11.885-11.927,17.847-17.869
				c0.39-0.388,0.537-0.667,0.324-1.262c-0.512-1.446-0.264-2.849,0.811-3.978c1.491-1.566,3.022-3.102,4.592-4.588
				c1.193-1.133,2.641-1.34,4.175-0.787c0.356,0.129,0.577,0.154,0.86-0.149c1.887-2.025,4.296-2.811,6.99-2.837
				C60.839,8.265,68.251,15.551,68.314,24.354z M57.513,38.566c0.506-0.273,1.076-0.468,1.502-0.833
				c0.773-0.664,1.472-1.419,2.182-2.153c0.966-1.003,0.973-2.234-0.021-3.227c-5.625-5.644-11.258-11.276-16.897-16.904
				c-0.986-0.985-2.225-0.981-3.231-0.021c-0.74,0.705-1.462,1.432-2.17,2.169c-0.931,0.975-0.919,2.188,0.016,3.18
				c0.358,0.38,0.737,0.743,1.106,1.113c5.213,5.212,10.43,10.422,15.638,15.641C56.143,38.036,56.677,38.438,57.513,38.566z
				 M28.125,55.867c-2.324,0.763-4.128-0.121-5.668-1.662c-1.552-1.555-2.467-3.367-1.691-5.683c-1.688-0.075-3.245-0.397-4.4-1.769
				c-0.094,0.186-0.174,0.306-0.222,0.437c-1.439,3.969-2.882,7.935-4.295,11.911c-0.068,0.19,0.06,0.546,0.219,0.708
				c1.56,1.596,3.155,3.161,4.719,4.756c0.292,0.298,0.538,0.353,0.93,0.215c3.018-1.071,6.048-2.104,9.062-3.184
				c1.039-0.371,2.042-0.836,3.144-1.294C28.529,59.104,28.188,57.575,28.125,55.867z"/>
		</g>
	</g>
</g>
</svg>
