<?xml version="1.0" encoding="utf-8"?>
<!-- Generator: Adobe Illustrator 16.0.0, SVG Export Plug-In . SVG Version: 6.00 Build 0)  -->
<!DOCTYPE svg PUBLIC "-//W3C//DTD SVG 1.1//EN" "http://www.w3.org/Graphics/SVG/1.1/DTD/svg11.dtd">
<svg version="1.1" id="Capa_1" xmlns="http://www.w3.org/2000/svg" xmlns:xlink="http://www.w3.org/1999/xlink" x="0px" y="0px"
	 width="100px" height="100px" viewBox="0 0 100 100" enable-background="new 0 0 100 100" xml:space="preserve">
<g>
	<g>
		<path opacity="0.8" fill="#FFCC05" d="M95.906,21.434h-78.09c-3.247,0-7.818,1.553-7.818,5.532v26.611
			c0,3.979,4.572,9.431,7.818,9.431h0.228v19.284c0,3.979,3.516,8.878,6.258,8.878h65.994c2.742,0,2.85-4.899,2.85-8.878V63.008
			h2.013l0.037-0.614c3.25,0,4.656-4.837,4.656-8.816V26.966C99.852,22.987,99.156,21.434,95.906,21.434z"/>
		<path opacity="0.8" fill="#FFCC05" d="M81.075,15.666c0-5.333-3.651-8.985-8.984-8.985H44.466c-5.333,0-10.329,3.651-10.329,8.985
			v5.094h46.938V15.666z"/>
	</g>
	<g>
		<path opacity="0.8" d="M83.292,64.48v19.961c0,3.979-0.107,8.879-2.85,8.879H14.448c-2.742,0-6.253-4.899-6.253-8.879V64.48"/>
		<path opacity="0.8" d="M26.297,63.27H7.963c-3.247,0-7.814-5.451-7.814-9.427V27.227c0-3.979,4.568-5.532,7.814-5.532h78.089
			c3.251,0,3.946,1.553,3.946,5.532v26.616c0,3.976-1.406,8.812-4.652,8.812l-0.041,0.615H66.529"/>
		<line opacity="0.8" x1="58.482" y1="63.27" x2="35.683" y2="63.27"/>
		<rect x="26.967" y="56.563" fill="#FFFFFF" width="8.046" height="14.753"/>
		<rect x="57.813" y="56.563" fill="#FFFFFF" width="8.047" height="14.753"/>
		<path opacity="0.8" d="M24.287,21.023v-5.096c0-5.332,4.992-8.983,10.325-8.983h27.625c5.333,0,8.988,3.651,8.988,8.983v5.096"/>
	</g>
</g>
</svg>
