<?xml version="1.0" encoding="utf-8"?>
<!-- Generator: Adobe Illustrator 16.0.0, SVG Export Plug-In . SVG Version: 6.00 Build 0)  -->
<!DOCTYPE svg PUBLIC "-//W3C//DTD SVG 1.1//EN" "http://www.w3.org/Graphics/SVG/1.1/DTD/svg11.dtd">
<svg version="1.1" id="Capa_1" xmlns="http://www.w3.org/2000/svg" xmlns:xlink="http://www.w3.org/1999/xlink" x="0px" y="0px"
	 width="80px" height="80px" viewBox="0 0 80 80" enable-background="new 0 0 80 80" xml:space="preserve">
<g>
	<path fill-rule="evenodd" clip-rule="evenodd" fill="#000001" d="M38.732,0.117c1.425-0.094,4.752-0.395,5.82,0.594
		c1.322,1.22,0.317,4.073,0.948,5.581c0.406,0.967,1.354,1.281,2.615,1.78c1.08,0.432,1.985,1.124,3.324,0.95
		c2.063-0.264,2.476-3.242,4.868-3.321c1.685-0.062,2.95,1.997,3.801,2.847c1.041,1.042,2.936,2.248,2.97,3.682
		c0.054,2.256-3.09,2.81-3.326,5.107c-0.149,1.487,1.813,5.406,2.729,5.818c1.572,0.706,3.935-0.238,5.348,0.597
		c1.356,0.8,1.529,8.551,0.354,9.734c-1.189,1.206-3.811,0.243-5.463,0.833c-1.204,0.429-3.025,4.277-2.85,5.935
		c0.125,1.169,1.124,1.753,1.782,2.497c0.54,0.609,1.598,1.328,1.545,2.611c-0.063,1.426-1.993,2.666-2.971,3.682
		c-1.069,1.115-2.419,2.945-3.56,2.969c-2.054,0.044-3.2-3.327-5.229-3.442c-1.371-0.079-5.229,1.7-5.699,2.732
		c-0.943,2.056,0.534,4.317-0.831,5.699c-1.036,1.048-8.55,1.271-9.621-0.118c-1.141-1.483-0.107-3.825-0.831-5.465
		c-0.494-1.115-1.472-1.24-2.496-1.661c-0.917-0.382-1.889-1.076-2.967-1.07c-2.173,0.016-3.224,3.439-5.346,3.445
		c-1.522,0.007-2.625-1.917-3.681-2.97c-0.943-0.943-2.901-2.096-2.969-3.562c-0.115-2.388,3.146-2.959,3.324-5.226
		c0.11-1.345-1.633-5.375-2.85-5.819c-1.481-0.543-4.397,0.417-5.58-0.833c-1.065-1.125-1.344-8.797,0.354-9.738
		c1.371-0.758,4.478,0.014,5.702-0.949c0.689-0.545,2.285-3.967,2.256-5.227c-0.027-1.101-0.965-1.949-1.665-2.732
		c-0.604-0.677-1.752-1.388-1.779-2.492c-0.039-1.723,1.97-2.683,2.97-3.682c0.86-0.86,2.285-2.972,3.441-3.087
		c2.148-0.218,3.351,3.063,5.108,3.325c1.484,0.219,2.312-0.595,3.444-1.071c1.024-0.43,2.275-0.831,2.613-1.78
		c0.538-1.512-0.293-3.86,0.594-5.226C35.596,0.043,37.564,0.193,38.732,0.117z M31.608,28.974c0.037,4.492,3.675,8.386,8.549,8.313
		c4.535-0.068,8.811-4.001,8.196-9.501c-0.186-1.647-1.564-4.056-2.376-4.869c-1.432-1.431-4.191-2.649-7.125-2.254
		C34.873,21.195,31.566,24.427,31.608,28.974z"/>
	<g>
		<path d="M19.734,69.852h1.932v8.305h2.814V80h-4.747V69.852z"/>
		<path d="M29.046,69.852h1.958L34.908,80h-2.009l-0.793-2.091h-4.14L27.139,80h-2.005L29.046,69.852z M30.037,72.54l-1.363,3.485
			h2.717L30.037,72.54z"/>
		<path d="M40.486,69.852h2.047c1.119,0,1.917,0.098,2.394,0.299c0.476,0.202,0.855,0.534,1.148,0.998
			c0.287,0.465,0.433,1.015,0.433,1.646c0,0.669-0.161,1.227-0.481,1.676c-0.317,0.446-0.801,0.787-1.441,1.017L46.989,80h-2.113
			l-2.283-4.299h-0.177V80h-1.93V69.852z M42.416,73.815h0.607c0.612,0,1.036-0.079,1.269-0.241c0.229-0.16,0.349-0.428,0.349-0.802
			c0-0.222-0.06-0.414-0.174-0.577c-0.114-0.164-0.268-0.282-0.46-0.353c-0.194-0.072-0.546-0.107-1.06-0.107h-0.531V73.815z"/>
		<path d="M48.557,69.852h5.539v1.89h-3.621v1.835h3.621v1.856h-3.621v2.669h3.621V80h-5.539V69.852z"/>
		<path d="M55.905,69.852h2.288c1.474,0,2.571,0.182,3.287,0.548c0.717,0.365,1.309,0.96,1.771,1.783
			c0.465,0.823,0.697,1.783,0.697,2.882c0,0.784-0.129,1.504-0.391,2.158c-0.257,0.655-0.615,1.199-1.076,1.631
			c-0.455,0.434-0.949,0.731-1.486,0.897C60.465,79.916,59.541,80,58.227,80h-2.321V69.852z M57.822,71.714v6.401h0.896
			c0.884,0,1.522-0.101,1.921-0.303c0.398-0.203,0.725-0.544,0.978-1.023c0.253-0.479,0.379-1.067,0.379-1.768
			c0-1.078-0.301-1.914-0.905-2.507c-0.542-0.535-1.411-0.801-2.612-0.801H57.822z"/>
	</g>
</g>
</svg>
