<?xml version="1.0" encoding="utf-8"?>
<!-- Generator: Adobe Illustrator 16.0.0, SVG Export Plug-In . SVG Version: 6.00 Build 0)  -->
<!DOCTYPE svg PUBLIC "-//W3C//DTD SVG 1.1//EN" "http://www.w3.org/Graphics/SVG/1.1/DTD/svg11.dtd">
<svg version="1.1" id="Capa_1" xmlns="http://www.w3.org/2000/svg" xmlns:xlink="http://www.w3.org/1999/xlink" x="0px" y="0px"
	 width="47.845px" height="61.24px" viewBox="0 0 47.845 61.24" enable-background="new 0 0 47.845 61.24" xml:space="preserve">
<g id="YawzAS.tif" opacity="0.8">
	<g>
		<path fill-rule="evenodd" clip-rule="evenodd" fill="#000001" d="M47.845,5.282c-0.422,0.554-0.843,1.108-1.282,1.684
			c-2.387-1.736-4.772-3.469-7.188-5.223C39.814,1.145,40.232,0.572,40.65,0c0.024,0,0.051,0,0.077,0
			c0.157,0.078,0.31,0.165,0.472,0.233c1.543,0.651,3.003,1.455,4.255,2.573c0.842,0.751,1.597,1.596,2.392,2.401
			C47.845,5.232,47.845,5.257,47.845,5.282z"/>
		<path fill-rule="evenodd" clip-rule="evenodd" fill="#000001" d="M43.704,19.764c0,0.216,0,0.338,0,0.461
			c0,11.238,0.001,22.479,0,33.719c0,4.146-3.144,7.292-7.289,7.293c-9.722,0.004-19.444,0.004-29.165,0
			c-3.571-0.002-6.453-2.381-7.131-5.884c-0.084-0.436-0.113-0.888-0.113-1.331C0,39.439-0.001,24.856,0.002,10.275
			c0-3.635,2.442-6.547,6.012-7.182C6.402,3.024,6.8,2.995,7.195,2.995C15.488,2.99,23.78,2.992,32.073,2.992
			c0.089,0,0.176,0,0.333,0c-0.094,0.158-0.158,0.275-0.229,0.388c-0.778,1.225-1.566,2.447-2.332,3.683
			c-0.159,0.258-0.334,0.353-0.639,0.353c-6.723-0.011-13.447,0-20.17-0.012C7.446,7.399,6.149,7.952,5.201,9.243
			c-0.594,0.809-0.831,1.736-0.83,2.733c0.004,4.325,0.002,8.65,0.002,12.975c0,9.098-0.002,18.193,0,27.291
			c0.001,2.143,1.219,3.867,3.155,4.422c0.445,0.128,0.927,0.196,1.392,0.196c8.625,0.012,17.249,0.012,25.874,0.009
			c2.546-0.003,4.456-1.868,4.533-4.411c0.019-0.6,0.005-1.2,0.005-1.799c0.002-8.204-0.001-16.408,0.012-24.61
			c0-0.245,0.092-0.53,0.234-0.727c1.266-1.745,2.553-3.473,3.836-5.205C43.486,20.019,43.567,19.93,43.704,19.764z"/>
		<path fill-rule="evenodd" clip-rule="evenodd" fill="#000001" d="M19.278,29.4C24.99,21.539,30.67,13.721,36.371,5.878
			c1.112,0.805,2.202,1.594,3.319,2.404c-0.187,0.254-0.354,0.492-0.524,0.722c-5.221,7.084-10.443,14.163-15.653,21.252
			c-0.251,0.342-0.456,0.394-0.84,0.258C21.571,30.124,20.452,29.78,19.278,29.4z"/>
		<path fill-rule="evenodd" clip-rule="evenodd" fill="#000001" d="M26.207,34.679c-0.726-1.142-1.43-2.232-2.108-3.34
			c-0.054-0.089,0.014-0.308,0.093-0.417c1.531-2.102,3.074-4.196,4.615-6.294c3.782-5.148,7.564-10.295,11.347-15.444
			c0.074-0.102,0.152-0.201,0.251-0.329c1.058,0.753,2.102,1.497,3.169,2.256C37.784,18.966,32.014,26.796,26.207,34.679z"/>
		<path fill-rule="evenodd" clip-rule="evenodd" fill="#000001" d="M16.98,39.803c0.629-3.176,1.24-6.266,1.859-9.391
			c1.143,0.394,2.238,0.794,3.352,1.143c0.477,0.15,0.804,0.403,1.071,0.827c0.61,0.969,1.267,1.909,1.925,2.893
			C22.471,36.772,19.767,38.267,16.98,39.803z"/>
		<path fill-rule="evenodd" clip-rule="evenodd" fill="#000001" d="M37.294,4.607c0.429-0.588,0.829-1.143,1.266-1.741
			c2.398,1.741,4.781,3.473,7.201,5.231c-0.424,0.583-0.833,1.146-1.266,1.742C42.099,8.099,39.721,6.371,37.294,4.607z"/>
	</g>
</g>
</svg>
