<?xml version="1.0" encoding="utf-8"?>
<!-- Generator: Adobe Illustrator 16.0.0, SVG Export Plug-In . SVG Version: 6.00 Build 0)  -->
<!DOCTYPE svg PUBLIC "-//W3C//DTD SVG 1.1//EN" "http://www.w3.org/Graphics/SVG/1.1/DTD/svg11.dtd">
<svg version="1.1" id="Capa_1" xmlns="http://www.w3.org/2000/svg" xmlns:xlink="http://www.w3.org/1999/xlink" x="0px" y="0px"
	 width="30px" height="30px" viewBox="0 0 30 30" enable-background="new 0 0 30 30" xml:space="preserve">
<path fill-rule="evenodd" clip-rule="evenodd" fill="#020000" d="M10.701,21.827c-2.251,2.252-4.503,4.521-6.781,6.762
	c-0.822,0.82-1.762,0.801-2.573,0.02c-0.773-0.744-0.773-1.735,0-2.592c0.149-0.162,0.322-0.322,0.482-0.476
	c2.353-2.356,4.701-4.698,7.039-7.042c-3.822-5.865-1.75-12.354,2.511-15.506c4.48-3.323,10.734-2.822,14.703,1.195
	c3.853,3.904,4.208,10.156,0.871,14.6c-3.101,4.112-9.612,6.24-15.612,2.246C11.132,21.304,10.948,21.587,10.701,21.827z
	 M18.145,19.968c4.429-0.045,7.945-3.676,7.889-8.166c-0.045-4.37-3.736-7.844-8.267-7.781c-4.223,0.047-7.742,3.741-7.682,8.054
	C10.137,16.503,13.708,20.017,18.145,19.968z"/>
</svg>
