<?xml version="1.0" encoding="utf-8"?>
<!-- Generator: Adobe Illustrator 16.0.0, SVG Export Plug-In . SVG Version: 6.00 Build 0)  -->
<!DOCTYPE svg PUBLIC "-//W3C//DTD SVG 1.1//EN" "http://www.w3.org/Graphics/SVG/1.1/DTD/svg11.dtd">
<svg version="1.1" id="Capa_1" xmlns="http://www.w3.org/2000/svg" xmlns:xlink="http://www.w3.org/1999/xlink" x="0px" y="0px"
	 width="100px" height="100px" viewBox="-15 -15 100 100" enable-background="new -15 -15 100 100" xml:space="preserve">
<g>
	<rect x="-15.001" y="-15" opacity="0.8" fill="#4BC6E8" enable-background="new    " width="100.002" height="100"/>
	<g id="TUi28W.tif_1_">
		<g>
			<path fill="#020000" d="M9.089,56.095c8.209,0.789,14.001-1.839,18.331-5.321c-6.643-0.095-9.347-4.136-11.59-8.633
				c1.455,0.01,3.753,0.017,5.322-0.236c-5.248-2.242-9.482-5.501-9.581-12.889c1.607,0.717,3.07,1.582,5.323,1.654
				c-1.765-2.001-4.767-4.729-5.206-8.634c-0.355-3.196,0.603-5.696,1.417-8.279c0.98,0.518,1.607,1.486,2.369,2.248
				c5.694,5.694,12.613,10.354,23.296,10.881c-1.061-8.87,4.358-15.073,11.355-15.613c3.483-0.266,6.251,0.938,8.041,2.245
				c0.71,0.522,1.116,1.505,1.894,1.659c1.204,0.234,3.044-0.747,4.138-1.183c1.442-0.574,2.777-1.077,3.545-1.771
				c-0.565,3.018-2.705,5.491-5.082,7.094c2.48-0.553,4.91-1.158,6.977-2.128c0,0.078,0,0.155,0,0.235
				c-1.722,2.538-3.516,4.999-6.386,6.386c0.584,11.226-4.141,21.344-9.938,27.557c-5.91,6.338-14.236,10.37-25.188,10.407
				c-8.128,0.027-14.151-1.909-19.041-5.557C9.089,56.175,9.089,56.134,9.089,56.095z"/>
		</g>
	</g>
</g>
</svg>
