<?xml version="1.0" encoding="utf-8"?>
<!-- Generator: Adobe Illustrator 16.0.0, SVG Export Plug-In . SVG Version: 6.00 Build 0)  -->
<!DOCTYPE svg PUBLIC "-//W3C//DTD SVG 1.1//EN" "http://www.w3.org/Graphics/SVG/1.1/DTD/svg11.dtd">
<svg version="1.1" id="Capa_1" xmlns="http://www.w3.org/2000/svg" xmlns:xlink="http://www.w3.org/1999/xlink" x="0px" y="0px"
	 width="150px" height="150px" viewBox="-25 -25 150 150" enable-background="new -25 -25 150 150" xml:space="preserve">
<g>
	<rect x="-25" y="-24.998" fill="#4BC6E8" enable-background="new    " width="150" height="149.996"/>
	<g id="TUi28W.tif_1_">
		<g>
			<path fill="#020000" d="M11.134,81.643c12.313,1.183,21.001-2.76,27.496-7.982c-9.964-0.141-14.02-6.203-17.384-12.948
				c2.183,0.015,5.629,0.025,7.982-0.354c-7.872-3.362-14.223-8.252-14.371-19.333c2.411,1.075,4.605,2.373,7.985,2.48
				c-2.648-3.001-7.151-7.093-7.809-12.95c-0.533-4.794,0.904-8.544,2.125-12.419c1.47,0.777,2.41,2.229,3.554,3.372
				c8.541,8.542,18.918,15.531,34.942,16.321c-1.591-13.304,6.537-22.608,17.033-23.419c5.223-0.399,9.376,1.407,12.061,3.368
				c1.065,0.782,1.675,2.257,2.842,2.487c1.805,0.352,4.564-1.119,6.207-1.773c2.163-0.861,4.164-1.616,5.317-2.656
				c-0.849,4.526-4.058,8.235-7.623,10.64c3.719-0.829,7.363-1.736,10.466-3.191c0,0.117,0,0.232,0,0.353
				c-2.584,3.807-5.274,7.498-9.58,9.579c0.876,16.839-6.211,32.015-14.906,41.335c-8.865,9.506-21.354,15.553-37.782,15.608
				c-12.191,0.041-21.226-2.862-28.561-8.335C11.134,81.762,11.134,81.7,11.134,81.643z"/>
		</g>
	</g>
</g>
</svg>
