<?xml version="1.0" encoding="utf-8"?>
<!-- Generator: Adobe Illustrator 16.0.0, SVG Export Plug-In . SVG Version: 6.00 Build 0)  -->
<!DOCTYPE svg PUBLIC "-//W3C//DTD SVG 1.1//EN" "http://www.w3.org/Graphics/SVG/1.1/DTD/svg11.dtd">
<svg version="1.1" id="Capa_1" xmlns="http://www.w3.org/2000/svg" xmlns:xlink="http://www.w3.org/1999/xlink" x="0px" y="0px"
	 width="80px" height="80px" viewBox="0 0 80 80" enable-background="new 0 0 80 80" xml:space="preserve">
<g>
	<g opacity="0.8">
		<path fill-rule="evenodd" clip-rule="evenodd" fill="#FFCC05" d="M40.659,0.46c11.114-1.25,19.796,5.629,22.99,10.875
			c2.09,3.422,3.19,7.586,3.419,9.63c2.021,18.079-12.497,28.83-27.031,27.342c-12.318-1.264-21.235-11.786-21.127-24.233
			c0.068-7.819,3.459-13.434,7.146-17.09C29.397,3.67,34.204,1.186,40.659,0.46z"/>
		<path fill-rule="evenodd" clip-rule="evenodd" fill="#FFCC05" d="M79.806,79.689c-24.441,0-48.882,0-73.324,0
			C6.982,63.721,17.338,55.955,28.23,51.416c5.406,4.771,15.724,6.194,23.613,3.105c1.723-0.674,4.531-2.994,6.216-3.105
			c2.086-0.142,6.445,2.979,8.388,4.349C73.839,60.974,79.449,67.956,79.806,79.689z"/>
	</g>
	<g opacity="0.8">
		<path fill-rule="evenodd" clip-rule="evenodd" fill="#000001" d="M34.371,0.46c11.112-1.25,19.794,5.629,22.992,10.875
			c2.086,3.422,3.187,7.586,3.419,9.63c2.021,18.079-12.501,28.83-27.033,27.342c-12.318-1.264-21.235-11.786-21.127-24.233
			c0.067-7.819,3.459-13.434,7.146-17.09C23.11,3.67,27.917,1.186,34.371,0.46z"/>
		<path fill-rule="evenodd" clip-rule="evenodd" fill="#000001" d="M73.521,79.689c-24.442,0-48.884,0-73.326,0
			c0.5-15.969,10.856-23.734,21.748-28.273c5.406,4.771,15.723,6.194,23.615,3.105c1.722-0.674,4.527-2.994,6.212-3.105
			c2.085-0.142,6.448,2.979,8.391,4.349C67.555,60.974,73.165,67.956,73.521,79.689z"/>
	</g>
</g>
</svg>
